ISO-10303-21;
HEADER;
/* Generated by software containing ST-Developer
 * from STEP Tools, Inc. (www.steptools.com) 
 */

FILE_DESCRIPTION(
/* description */ (''),
/* implementation_level */ '2;1');

FILE_NAME(
/* name */ 'Rot Enc v1.step',
/* time_stamp */ '2026-03-02T18:45:46-08:00',
/* author */ (''),
/* organization */ (''),
/* preprocessor_version */ 'ST-DEVELOPER v20.1',
/* originating_system */ 'Autodesk Translation Framework v14.17.0.0',
/* authorisation */ '');

FILE_SCHEMA (('AUTOMOTIVE_DESIGN { 1 0 10303 214 3 1 1 }'));
ENDSEC;

DATA;
#10=MECHANICAL_DESIGN_GEOMETRIC_PRESENTATION_REPRESENTATION('',(#13),#784);
#11=SHAPE_REPRESENTATION_RELATIONSHIP('SRR','None',#791,#12);
#12=ADVANCED_BREP_SHAPE_REPRESENTATION('',(#14),#783);
#13=STYLED_ITEM('',(#800),#14);
#14=MANIFOLD_SOLID_BREP('Body1',#462);
#15=(
BOUNDED_CURVE()
B_SPLINE_CURVE(2,(#753,#754,#755),.UNSPECIFIED.,.F.,.F.)
B_SPLINE_CURVE_WITH_KNOTS((3,3),(1.27334943707044,1.44369845966195),
 .UNSPECIFIED.)
CURVE()
GEOMETRIC_REPRESENTATION_ITEM()
RATIONAL_B_SPLINE_CURVE((1.08094657368439,1.04588781380071,1.))
REPRESENTATION_ITEM('')
);
#16=(
BOUNDED_CURVE()
B_SPLINE_CURVE(2,(#759,#760,#761),.UNSPECIFIED.,.F.,.F.)
B_SPLINE_CURVE_WITH_KNOTS((3,3),(0.,0.170349022591508),.UNSPECIFIED.)
CURVE()
GEOMETRIC_REPRESENTATION_ITEM()
RATIONAL_B_SPLINE_CURVE((1.,1.04588781380072,1.0809465736844))
REPRESENTATION_ITEM('')
);
#17=CONICAL_SURFACE('',#501,3.25,0.785398163397448);
#18=CONICAL_SURFACE('',#505,2.75,0.78539816339745);
#19=FACE_BOUND('',#64,.T.);
#20=PLANE('',#479);
#21=PLANE('',#484);
#22=PLANE('',#489);
#23=PLANE('',#492);
#24=PLANE('',#493);
#25=PLANE('',#494);
#26=PLANE('',#495);
#27=PLANE('',#496);
#28=PLANE('',#497);
#29=PLANE('',#498);
#30=PLANE('',#499);
#31=PLANE('',#500);
#32=PLANE('',#509);
#33=PLANE('',#510);
#34=PLANE('',#511);
#35=PLANE('',#514);
#36=PLANE('',#515);
#37=FACE_OUTER_BOUND('',#62,.T.);
#38=FACE_OUTER_BOUND('',#63,.T.);
#39=FACE_OUTER_BOUND('',#65,.T.);
#40=FACE_OUTER_BOUND('',#66,.T.);
#41=FACE_OUTER_BOUND('',#67,.T.);
#42=FACE_OUTER_BOUND('',#68,.T.);
#43=FACE_OUTER_BOUND('',#69,.T.);
#44=FACE_OUTER_BOUND('',#70,.T.);
#45=FACE_OUTER_BOUND('',#71,.T.);
#46=FACE_OUTER_BOUND('',#72,.T.);
#47=FACE_OUTER_BOUND('',#73,.T.);
#48=FACE_OUTER_BOUND('',#74,.T.);
#49=FACE_OUTER_BOUND('',#75,.T.);
#50=FACE_OUTER_BOUND('',#76,.T.);
#51=FACE_OUTER_BOUND('',#77,.T.);
#52=FACE_OUTER_BOUND('',#78,.T.);
#53=FACE_OUTER_BOUND('',#79,.T.);
#54=FACE_OUTER_BOUND('',#80,.T.);
#55=FACE_OUTER_BOUND('',#81,.T.);
#56=FACE_OUTER_BOUND('',#82,.T.);
#57=FACE_OUTER_BOUND('',#83,.T.);
#58=FACE_OUTER_BOUND('',#84,.T.);
#59=FACE_OUTER_BOUND('',#85,.T.);
#60=FACE_OUTER_BOUND('',#86,.T.);
#61=FACE_OUTER_BOUND('',#87,.T.);
#62=EDGE_LOOP('',(#303,#304,#305,#306));
#63=EDGE_LOOP('',(#307,#308,#309,#310,#311,#312,#313,#314));
#64=EDGE_LOOP('',(#315));
#65=EDGE_LOOP('',(#316,#317,#318,#319));
#66=EDGE_LOOP('',(#320,#321,#322,#323));
#67=EDGE_LOOP('',(#324,#325,#326,#327));
#68=EDGE_LOOP('',(#328,#329,#330,#331));
#69=EDGE_LOOP('',(#332,#333,#334,#335));
#70=EDGE_LOOP('',(#336,#337,#338,#339));
#71=EDGE_LOOP('',(#340,#341,#342,#343));
#72=EDGE_LOOP('',(#344,#345,#346,#347));
#73=EDGE_LOOP('',(#348,#349,#350,#351));
#74=EDGE_LOOP('',(#352,#353,#354,#355,#356,#357,#358,#359));
#75=EDGE_LOOP('',(#360,#361,#362,#363));
#76=EDGE_LOOP('',(#364,#365,#366,#367));
#77=EDGE_LOOP('',(#368,#369,#370,#371));
#78=EDGE_LOOP('',(#372,#373,#374,#375));
#79=EDGE_LOOP('',(#376,#377,#378,#379));
#80=EDGE_LOOP('',(#380,#381,#382,#383));
#81=EDGE_LOOP('',(#384,#385,#386,#387,#388));
#82=EDGE_LOOP('',(#389,#390));
#83=EDGE_LOOP('',(#391,#392,#393,#394,#395,#396));
#84=EDGE_LOOP('',(#397,#398));
#85=EDGE_LOOP('',(#399,#400,#401,#402,#403,#404,#405,#406));
#86=EDGE_LOOP('',(#407,#408,#409,#410,#411,#412,#413,#414));
#87=EDGE_LOOP('',(#415,#416,#417,#418,#419,#420,#421,#422,#423,#424,#425,
#426,#427,#428,#429,#430));
#88=LINE('',#651,#135);
#89=LINE('',#654,#136);
#90=LINE('',#657,#137);
#91=LINE('',#661,#138);
#92=LINE('',#665,#139);
#93=LINE('',#668,#140);
#94=LINE('',#673,#141);
#95=LINE('',#674,#142);
#96=LINE('',#678,#143);
#97=LINE('',#681,#144);
#98=LINE('',#684,#145);
#99=LINE('',#687,#146);
#100=LINE('',#688,#147);
#101=LINE('',#691,#148);
#102=LINE('',#696,#149);
#103=LINE('',#698,#150);
#104=LINE('',#700,#151);
#105=LINE('',#701,#152);
#106=LINE('',#704,#153);
#107=LINE('',#706,#154);
#108=LINE('',#707,#155);
#109=LINE('',#710,#156);
#110=LINE('',#712,#157);
#111=LINE('',#713,#158);
#112=LINE('',#715,#159);
#113=LINE('',#717,#160);
#114=LINE('',#718,#161);
#115=LINE('',#722,#162);
#116=LINE('',#724,#163);
#117=LINE('',#726,#164);
#118=LINE('',#727,#165);
#119=LINE('',#730,#166);
#120=LINE('',#732,#167);
#121=LINE('',#733,#168);
#122=LINE('',#736,#169);
#123=LINE('',#738,#170);
#124=LINE('',#739,#171);
#125=LINE('',#741,#172);
#126=LINE('',#746,#173);
#127=LINE('',#749,#174);
#128=LINE('',#766,#175);
#129=LINE('',#769,#176);
#130=LINE('',#771,#177);
#131=LINE('',#772,#178);
#132=LINE('',#776,#179);
#133=LINE('',#778,#180);
#134=LINE('',#779,#181);
#135=VECTOR('',#522,10.);
#136=VECTOR('',#525,10.);
#137=VECTOR('',#528,10.);
#138=VECTOR('',#531,10.);
#139=VECTOR('',#534,10.);
#140=VECTOR('',#537,10.);
#141=VECTOR('',#542,10.);
#142=VECTOR('',#543,10.);
#143=VECTOR('',#548,10.);
#144=VECTOR('',#551,10.);
#145=VECTOR('',#554,10.);
#146=VECTOR('',#557,10.);
#147=VECTOR('',#558,10.);
#148=VECTOR('',#561,10.);
#149=VECTOR('',#566,10.);
#150=VECTOR('',#567,10.);
#151=VECTOR('',#568,10.);
#152=VECTOR('',#569,10.);
#153=VECTOR('',#572,10.);
#154=VECTOR('',#573,10.);
#155=VECTOR('',#574,10.);
#156=VECTOR('',#577,10.);
#157=VECTOR('',#578,10.);
#158=VECTOR('',#579,10.);
#159=VECTOR('',#582,10.);
#160=VECTOR('',#585,10.);
#161=VECTOR('',#586,10.);
#162=VECTOR('',#589,10.);
#163=VECTOR('',#590,10.);
#164=VECTOR('',#591,10.);
#165=VECTOR('',#592,10.);
#166=VECTOR('',#595,10.);
#167=VECTOR('',#596,10.);
#168=VECTOR('',#597,10.);
#169=VECTOR('',#600,10.);
#170=VECTOR('',#601,10.);
#171=VECTOR('',#602,10.);
#172=VECTOR('',#605,10.);
#173=VECTOR('',#610,3.25);
#174=VECTOR('',#615,3.5);
#175=VECTOR('',#626,10.);
#176=VECTOR('',#629,10.);
#177=VECTOR('',#630,10.);
#178=VECTOR('',#631,10.);
#179=VECTOR('',#638,3.);
#180=VECTOR('',#641,10.);
#181=VECTOR('',#642,10.);
#182=CIRCLE('',#477,1.);
#183=CIRCLE('',#478,1.);
#184=CIRCLE('',#480,1.);
#185=CIRCLE('',#481,1.);
#186=CIRCLE('',#482,1.);
#187=CIRCLE('',#483,3.5);
#188=CIRCLE('',#486,1.);
#189=CIRCLE('',#488,1.);
#190=CIRCLE('',#491,1.);
#191=CIRCLE('',#502,3.);
#192=CIRCLE('',#503,3.5);
#193=CIRCLE('',#506,2.5);
#194=CIRCLE('',#507,3.);
#195=CIRCLE('',#508,3.);
#196=CIRCLE('',#512,3.);
#197=VERTEX_POINT('',#647);
#198=VERTEX_POINT('',#648);
#199=VERTEX_POINT('',#650);
#200=VERTEX_POINT('',#652);
#201=VERTEX_POINT('',#656);
#202=VERTEX_POINT('',#658);
#203=VERTEX_POINT('',#660);
#204=VERTEX_POINT('',#662);
#205=VERTEX_POINT('',#664);
#206=VERTEX_POINT('',#666);
#207=VERTEX_POINT('',#669);
#208=VERTEX_POINT('',#672);
#209=VERTEX_POINT('',#676);
#210=VERTEX_POINT('',#680);
#211=VERTEX_POINT('',#682);
#212=VERTEX_POINT('',#686);
#213=VERTEX_POINT('',#690);
#214=VERTEX_POINT('',#694);
#215=VERTEX_POINT('',#695);
#216=VERTEX_POINT('',#697);
#217=VERTEX_POINT('',#699);
#218=VERTEX_POINT('',#703);
#219=VERTEX_POINT('',#705);
#220=VERTEX_POINT('',#709);
#221=VERTEX_POINT('',#711);
#222=VERTEX_POINT('',#720);
#223=VERTEX_POINT('',#721);
#224=VERTEX_POINT('',#723);
#225=VERTEX_POINT('',#725);
#226=VERTEX_POINT('',#729);
#227=VERTEX_POINT('',#731);
#228=VERTEX_POINT('',#735);
#229=VERTEX_POINT('',#737);
#230=VERTEX_POINT('',#743);
#231=VERTEX_POINT('',#745);
#232=VERTEX_POINT('',#751);
#233=VERTEX_POINT('',#752);
#234=VERTEX_POINT('',#756);
#235=VERTEX_POINT('',#758);
#236=VERTEX_POINT('',#762);
#237=VERTEX_POINT('',#768);
#238=VERTEX_POINT('',#770);
#239=EDGE_CURVE('',#197,#198,#182,.T.);
#240=EDGE_CURVE('',#198,#199,#88,.T.);
#241=EDGE_CURVE('',#199,#200,#183,.T.);
#242=EDGE_CURVE('',#200,#197,#89,.T.);
#243=EDGE_CURVE('',#197,#201,#90,.T.);
#244=EDGE_CURVE('',#202,#201,#184,.T.);
#245=EDGE_CURVE('',#202,#203,#91,.T.);
#246=EDGE_CURVE('',#204,#203,#185,.T.);
#247=EDGE_CURVE('',#204,#205,#92,.T.);
#248=EDGE_CURVE('',#206,#205,#186,.T.);
#249=EDGE_CURVE('',#206,#198,#93,.T.);
#250=EDGE_CURVE('',#207,#207,#187,.T.);
#251=EDGE_CURVE('',#200,#208,#94,.T.);
#252=EDGE_CURVE('',#201,#208,#95,.T.);
#253=EDGE_CURVE('',#208,#209,#188,.T.);
#254=EDGE_CURVE('',#209,#202,#96,.T.);
#255=EDGE_CURVE('',#205,#210,#97,.T.);
#256=EDGE_CURVE('',#210,#211,#189,.T.);
#257=EDGE_CURVE('',#211,#206,#98,.T.);
#258=EDGE_CURVE('',#212,#204,#99,.T.);
#259=EDGE_CURVE('',#212,#210,#100,.T.);
#260=EDGE_CURVE('',#203,#213,#101,.T.);
#261=EDGE_CURVE('',#213,#212,#190,.T.);
#262=EDGE_CURVE('',#214,#215,#102,.T.);
#263=EDGE_CURVE('',#216,#215,#103,.T.);
#264=EDGE_CURVE('',#217,#216,#104,.T.);
#265=EDGE_CURVE('',#214,#217,#105,.T.);
#266=EDGE_CURVE('',#218,#214,#106,.T.);
#267=EDGE_CURVE('',#219,#217,#107,.T.);
#268=EDGE_CURVE('',#218,#219,#108,.T.);
#269=EDGE_CURVE('',#220,#218,#109,.T.);
#270=EDGE_CURVE('',#221,#219,#110,.T.);
#271=EDGE_CURVE('',#220,#221,#111,.T.);
#272=EDGE_CURVE('',#221,#216,#112,.T.);
#273=EDGE_CURVE('',#209,#220,#113,.T.);
#274=EDGE_CURVE('',#215,#213,#114,.T.);
#275=EDGE_CURVE('',#222,#223,#115,.T.);
#276=EDGE_CURVE('',#222,#224,#116,.T.);
#277=EDGE_CURVE('',#225,#224,#117,.T.);
#278=EDGE_CURVE('',#223,#225,#118,.T.);
#279=EDGE_CURVE('',#223,#226,#119,.T.);
#280=EDGE_CURVE('',#227,#225,#120,.T.);
#281=EDGE_CURVE('',#226,#227,#121,.T.);
#282=EDGE_CURVE('',#228,#222,#122,.T.);
#283=EDGE_CURVE('',#229,#228,#123,.T.);
#284=EDGE_CURVE('',#224,#229,#124,.T.);
#285=EDGE_CURVE('',#227,#229,#125,.T.);
#286=EDGE_CURVE('',#230,#230,#191,.T.);
#287=EDGE_CURVE('',#230,#231,#126,.T.);
#288=EDGE_CURVE('',#231,#231,#192,.T.);
#289=EDGE_CURVE('',#231,#207,#127,.T.);
#290=EDGE_CURVE('',#232,#233,#15,.T.);
#291=EDGE_CURVE('',#233,#234,#193,.T.);
#292=EDGE_CURVE('',#234,#235,#16,.T.);
#293=EDGE_CURVE('',#235,#236,#194,.T.);
#294=EDGE_CURVE('',#236,#232,#195,.T.);
#295=EDGE_CURVE('',#233,#234,#128,.T.);
#296=EDGE_CURVE('',#237,#232,#129,.T.);
#297=EDGE_CURVE('',#237,#238,#130,.T.);
#298=EDGE_CURVE('',#235,#238,#131,.T.);
#299=EDGE_CURVE('',#238,#237,#196,.T.);
#300=EDGE_CURVE('',#236,#230,#132,.T.);
#301=EDGE_CURVE('',#211,#226,#133,.T.);
#302=EDGE_CURVE('',#228,#199,#134,.T.);
#303=ORIENTED_EDGE('',*,*,#239,.T.);
#304=ORIENTED_EDGE('',*,*,#240,.T.);
#305=ORIENTED_EDGE('',*,*,#241,.T.);
#306=ORIENTED_EDGE('',*,*,#242,.T.);
#307=ORIENTED_EDGE('',*,*,#239,.F.);
#308=ORIENTED_EDGE('',*,*,#243,.T.);
#309=ORIENTED_EDGE('',*,*,#244,.F.);
#310=ORIENTED_EDGE('',*,*,#245,.T.);
#311=ORIENTED_EDGE('',*,*,#246,.F.);
#312=ORIENTED_EDGE('',*,*,#247,.T.);
#313=ORIENTED_EDGE('',*,*,#248,.F.);
#314=ORIENTED_EDGE('',*,*,#249,.T.);
#315=ORIENTED_EDGE('',*,*,#250,.T.);
#316=ORIENTED_EDGE('',*,*,#242,.F.);
#317=ORIENTED_EDGE('',*,*,#251,.T.);
#318=ORIENTED_EDGE('',*,*,#252,.F.);
#319=ORIENTED_EDGE('',*,*,#243,.F.);
#320=ORIENTED_EDGE('',*,*,#244,.T.);
#321=ORIENTED_EDGE('',*,*,#252,.T.);
#322=ORIENTED_EDGE('',*,*,#253,.T.);
#323=ORIENTED_EDGE('',*,*,#254,.T.);
#324=ORIENTED_EDGE('',*,*,#248,.T.);
#325=ORIENTED_EDGE('',*,*,#255,.T.);
#326=ORIENTED_EDGE('',*,*,#256,.T.);
#327=ORIENTED_EDGE('',*,*,#257,.T.);
#328=ORIENTED_EDGE('',*,*,#255,.F.);
#329=ORIENTED_EDGE('',*,*,#247,.F.);
#330=ORIENTED_EDGE('',*,*,#258,.F.);
#331=ORIENTED_EDGE('',*,*,#259,.T.);
#332=ORIENTED_EDGE('',*,*,#246,.T.);
#333=ORIENTED_EDGE('',*,*,#260,.T.);
#334=ORIENTED_EDGE('',*,*,#261,.T.);
#335=ORIENTED_EDGE('',*,*,#258,.T.);
#336=ORIENTED_EDGE('',*,*,#262,.T.);
#337=ORIENTED_EDGE('',*,*,#263,.F.);
#338=ORIENTED_EDGE('',*,*,#264,.F.);
#339=ORIENTED_EDGE('',*,*,#265,.F.);
#340=ORIENTED_EDGE('',*,*,#266,.T.);
#341=ORIENTED_EDGE('',*,*,#265,.T.);
#342=ORIENTED_EDGE('',*,*,#267,.F.);
#343=ORIENTED_EDGE('',*,*,#268,.F.);
#344=ORIENTED_EDGE('',*,*,#269,.T.);
#345=ORIENTED_EDGE('',*,*,#268,.T.);
#346=ORIENTED_EDGE('',*,*,#270,.F.);
#347=ORIENTED_EDGE('',*,*,#271,.F.);
#348=ORIENTED_EDGE('',*,*,#270,.T.);
#349=ORIENTED_EDGE('',*,*,#267,.T.);
#350=ORIENTED_EDGE('',*,*,#264,.T.);
#351=ORIENTED_EDGE('',*,*,#272,.F.);
#352=ORIENTED_EDGE('',*,*,#254,.F.);
#353=ORIENTED_EDGE('',*,*,#273,.T.);
#354=ORIENTED_EDGE('',*,*,#271,.T.);
#355=ORIENTED_EDGE('',*,*,#272,.T.);
#356=ORIENTED_EDGE('',*,*,#263,.T.);
#357=ORIENTED_EDGE('',*,*,#274,.T.);
#358=ORIENTED_EDGE('',*,*,#260,.F.);
#359=ORIENTED_EDGE('',*,*,#245,.F.);
#360=ORIENTED_EDGE('',*,*,#275,.F.);
#361=ORIENTED_EDGE('',*,*,#276,.T.);
#362=ORIENTED_EDGE('',*,*,#277,.F.);
#363=ORIENTED_EDGE('',*,*,#278,.F.);
#364=ORIENTED_EDGE('',*,*,#279,.F.);
#365=ORIENTED_EDGE('',*,*,#278,.T.);
#366=ORIENTED_EDGE('',*,*,#280,.F.);
#367=ORIENTED_EDGE('',*,*,#281,.F.);
#368=ORIENTED_EDGE('',*,*,#282,.F.);
#369=ORIENTED_EDGE('',*,*,#283,.F.);
#370=ORIENTED_EDGE('',*,*,#284,.F.);
#371=ORIENTED_EDGE('',*,*,#276,.F.);
#372=ORIENTED_EDGE('',*,*,#284,.T.);
#373=ORIENTED_EDGE('',*,*,#285,.F.);
#374=ORIENTED_EDGE('',*,*,#280,.T.);
#375=ORIENTED_EDGE('',*,*,#277,.T.);
#376=ORIENTED_EDGE('',*,*,#286,.T.);
#377=ORIENTED_EDGE('',*,*,#287,.T.);
#378=ORIENTED_EDGE('',*,*,#288,.T.);
#379=ORIENTED_EDGE('',*,*,#287,.F.);
#380=ORIENTED_EDGE('',*,*,#288,.F.);
#381=ORIENTED_EDGE('',*,*,#289,.T.);
#382=ORIENTED_EDGE('',*,*,#250,.F.);
#383=ORIENTED_EDGE('',*,*,#289,.F.);
#384=ORIENTED_EDGE('',*,*,#290,.T.);
#385=ORIENTED_EDGE('',*,*,#291,.T.);
#386=ORIENTED_EDGE('',*,*,#292,.T.);
#387=ORIENTED_EDGE('',*,*,#293,.T.);
#388=ORIENTED_EDGE('',*,*,#294,.T.);
#389=ORIENTED_EDGE('',*,*,#291,.F.);
#390=ORIENTED_EDGE('',*,*,#295,.T.);
#391=ORIENTED_EDGE('',*,*,#292,.F.);
#392=ORIENTED_EDGE('',*,*,#295,.F.);
#393=ORIENTED_EDGE('',*,*,#290,.F.);
#394=ORIENTED_EDGE('',*,*,#296,.F.);
#395=ORIENTED_EDGE('',*,*,#297,.T.);
#396=ORIENTED_EDGE('',*,*,#298,.F.);
#397=ORIENTED_EDGE('',*,*,#297,.F.);
#398=ORIENTED_EDGE('',*,*,#299,.F.);
#399=ORIENTED_EDGE('',*,*,#293,.F.);
#400=ORIENTED_EDGE('',*,*,#298,.T.);
#401=ORIENTED_EDGE('',*,*,#299,.T.);
#402=ORIENTED_EDGE('',*,*,#296,.T.);
#403=ORIENTED_EDGE('',*,*,#294,.F.);
#404=ORIENTED_EDGE('',*,*,#300,.T.);
#405=ORIENTED_EDGE('',*,*,#286,.F.);
#406=ORIENTED_EDGE('',*,*,#300,.F.);
#407=ORIENTED_EDGE('',*,*,#240,.F.);
#408=ORIENTED_EDGE('',*,*,#249,.F.);
#409=ORIENTED_EDGE('',*,*,#257,.F.);
#410=ORIENTED_EDGE('',*,*,#301,.T.);
#411=ORIENTED_EDGE('',*,*,#281,.T.);
#412=ORIENTED_EDGE('',*,*,#285,.T.);
#413=ORIENTED_EDGE('',*,*,#283,.T.);
#414=ORIENTED_EDGE('',*,*,#302,.T.);
#415=ORIENTED_EDGE('',*,*,#241,.F.);
#416=ORIENTED_EDGE('',*,*,#302,.F.);
#417=ORIENTED_EDGE('',*,*,#282,.T.);
#418=ORIENTED_EDGE('',*,*,#275,.T.);
#419=ORIENTED_EDGE('',*,*,#279,.T.);
#420=ORIENTED_EDGE('',*,*,#301,.F.);
#421=ORIENTED_EDGE('',*,*,#256,.F.);
#422=ORIENTED_EDGE('',*,*,#259,.F.);
#423=ORIENTED_EDGE('',*,*,#261,.F.);
#424=ORIENTED_EDGE('',*,*,#274,.F.);
#425=ORIENTED_EDGE('',*,*,#262,.F.);
#426=ORIENTED_EDGE('',*,*,#266,.F.);
#427=ORIENTED_EDGE('',*,*,#269,.F.);
#428=ORIENTED_EDGE('',*,*,#273,.F.);
#429=ORIENTED_EDGE('',*,*,#253,.F.);
#430=ORIENTED_EDGE('',*,*,#251,.F.);
#431=CYLINDRICAL_SURFACE('',#476,1.);
#432=CYLINDRICAL_SURFACE('',#485,1.);
#433=CYLINDRICAL_SURFACE('',#487,1.);
#434=CYLINDRICAL_SURFACE('',#490,1.);
#435=CYLINDRICAL_SURFACE('',#504,3.5);
#436=CYLINDRICAL_SURFACE('',#513,3.);
#437=ADVANCED_FACE('',(#37),#431,.T.);
#438=ADVANCED_FACE('',(#38,#19),#20,.T.);
#439=ADVANCED_FACE('',(#39),#21,.T.);
#440=ADVANCED_FACE('',(#40),#432,.T.);
#441=ADVANCED_FACE('',(#41),#433,.T.);
#442=ADVANCED_FACE('',(#42),#22,.T.);
#443=ADVANCED_FACE('',(#43),#434,.T.);
#444=ADVANCED_FACE('',(#44),#23,.T.);
#445=ADVANCED_FACE('',(#45),#24,.T.);
#446=ADVANCED_FACE('',(#46),#25,.T.);
#447=ADVANCED_FACE('',(#47),#26,.T.);
#448=ADVANCED_FACE('',(#48),#27,.T.);
#449=ADVANCED_FACE('',(#49),#28,.T.);
#450=ADVANCED_FACE('',(#50),#29,.T.);
#451=ADVANCED_FACE('',(#51),#30,.T.);
#452=ADVANCED_FACE('',(#52),#31,.T.);
#453=ADVANCED_FACE('',(#53),#17,.T.);
#454=ADVANCED_FACE('',(#54),#435,.T.);
#455=ADVANCED_FACE('',(#55),#18,.T.);
#456=ADVANCED_FACE('',(#56),#32,.T.);
#457=ADVANCED_FACE('',(#57),#33,.F.);
#458=ADVANCED_FACE('',(#58),#34,.T.);
#459=ADVANCED_FACE('',(#59),#436,.T.);
#460=ADVANCED_FACE('',(#60),#35,.T.);
#461=ADVANCED_FACE('',(#61),#36,.F.);
#462=CLOSED_SHELL('',(#437,#438,#439,#440,#441,#442,#443,#444,#445,#446,
#447,#448,#449,#450,#451,#452,#453,#454,#455,#456,#457,#458,#459,#460,#461));
#463=DERIVED_UNIT_ELEMENT(#465,1.);
#464=DERIVED_UNIT_ELEMENT(#786,-3.);
#465=(
MASS_UNIT()
NAMED_UNIT(*)
SI_UNIT(.KILO.,.GRAM.)
);
#466=DERIVED_UNIT((#463,#464));
#467=MEASURE_REPRESENTATION_ITEM('density measure',
POSITIVE_RATIO_MEASURE(7850.),#466);
#468=PROPERTY_DEFINITION_REPRESENTATION(#473,#470);
#469=PROPERTY_DEFINITION_REPRESENTATION(#474,#471);
#470=REPRESENTATION('material name',(#472),#783);
#471=REPRESENTATION('density',(#467),#783);
#472=DESCRIPTIVE_REPRESENTATION_ITEM('Steel','Steel');
#473=PROPERTY_DEFINITION('material property','material name',#793);
#474=PROPERTY_DEFINITION('material property','density of part',#793);
#475=AXIS2_PLACEMENT_3D('',#645,#516,#517);
#476=AXIS2_PLACEMENT_3D('',#646,#518,#519);
#477=AXIS2_PLACEMENT_3D('',#649,#520,#521);
#478=AXIS2_PLACEMENT_3D('',#653,#523,#524);
#479=AXIS2_PLACEMENT_3D('',#655,#526,#527);
#480=AXIS2_PLACEMENT_3D('',#659,#529,#530);
#481=AXIS2_PLACEMENT_3D('',#663,#532,#533);
#482=AXIS2_PLACEMENT_3D('',#667,#535,#536);
#483=AXIS2_PLACEMENT_3D('',#670,#538,#539);
#484=AXIS2_PLACEMENT_3D('',#671,#540,#541);
#485=AXIS2_PLACEMENT_3D('',#675,#544,#545);
#486=AXIS2_PLACEMENT_3D('',#677,#546,#547);
#487=AXIS2_PLACEMENT_3D('',#679,#549,#550);
#488=AXIS2_PLACEMENT_3D('',#683,#552,#553);
#489=AXIS2_PLACEMENT_3D('',#685,#555,#556);
#490=AXIS2_PLACEMENT_3D('',#689,#559,#560);
#491=AXIS2_PLACEMENT_3D('',#692,#562,#563);
#492=AXIS2_PLACEMENT_3D('',#693,#564,#565);
#493=AXIS2_PLACEMENT_3D('',#702,#570,#571);
#494=AXIS2_PLACEMENT_3D('',#708,#575,#576);
#495=AXIS2_PLACEMENT_3D('',#714,#580,#581);
#496=AXIS2_PLACEMENT_3D('',#716,#583,#584);
#497=AXIS2_PLACEMENT_3D('',#719,#587,#588);
#498=AXIS2_PLACEMENT_3D('',#728,#593,#594);
#499=AXIS2_PLACEMENT_3D('',#734,#598,#599);
#500=AXIS2_PLACEMENT_3D('',#740,#603,#604);
#501=AXIS2_PLACEMENT_3D('',#742,#606,#607);
#502=AXIS2_PLACEMENT_3D('',#744,#608,#609);
#503=AXIS2_PLACEMENT_3D('',#747,#611,#612);
#504=AXIS2_PLACEMENT_3D('',#748,#613,#614);
#505=AXIS2_PLACEMENT_3D('',#750,#616,#617);
#506=AXIS2_PLACEMENT_3D('',#757,#618,#619);
#507=AXIS2_PLACEMENT_3D('',#763,#620,#621);
#508=AXIS2_PLACEMENT_3D('',#764,#622,#623);
#509=AXIS2_PLACEMENT_3D('',#765,#624,#625);
#510=AXIS2_PLACEMENT_3D('',#767,#627,#628);
#511=AXIS2_PLACEMENT_3D('',#773,#632,#633);
#512=AXIS2_PLACEMENT_3D('',#774,#634,#635);
#513=AXIS2_PLACEMENT_3D('',#775,#636,#637);
#514=AXIS2_PLACEMENT_3D('',#777,#639,#640);
#515=AXIS2_PLACEMENT_3D('',#780,#643,#644);
#516=DIRECTION('axis',(0.,0.,1.));
#517=DIRECTION('refdir',(1.,0.,0.));
#518=DIRECTION('center_axis',(0.,0.,1.));
#519=DIRECTION('ref_axis',(-0.707106781186548,-0.707106781186547,0.));
#520=DIRECTION('center_axis',(0.,0.,-1.));
#521=DIRECTION('ref_axis',(-0.707106781186548,-0.707106781186547,0.));
#522=DIRECTION('',(0.,0.,-1.));
#523=DIRECTION('center_axis',(0.,0.,1.));
#524=DIRECTION('ref_axis',(-0.707106781186548,-0.707106781186547,0.));
#525=DIRECTION('',(0.,0.,1.));
#526=DIRECTION('center_axis',(0.,0.,1.));
#527=DIRECTION('ref_axis',(1.,0.,0.));
#528=DIRECTION('',(1.,0.,0.));
#529=DIRECTION('center_axis',(0.,0.,-1.));
#530=DIRECTION('ref_axis',(0.707106781186548,-0.707106781186547,0.));
#531=DIRECTION('',(0.,1.,0.));
#532=DIRECTION('center_axis',(0.,0.,-1.));
#533=DIRECTION('ref_axis',(0.707106781186548,0.707106781186548,0.));
#534=DIRECTION('',(-1.,0.,0.));
#535=DIRECTION('center_axis',(0.,0.,-1.));
#536=DIRECTION('ref_axis',(-0.707106781186547,0.707106781186548,0.));
#537=DIRECTION('',(0.,-1.,0.));
#538=DIRECTION('center_axis',(0.,0.,-1.));
#539=DIRECTION('ref_axis',(-1.,0.,0.));
#540=DIRECTION('center_axis',(0.,-1.,0.));
#541=DIRECTION('ref_axis',(1.,0.,0.));
#542=DIRECTION('',(1.,0.,0.));
#543=DIRECTION('',(0.,0.,-1.));
#544=DIRECTION('center_axis',(0.,0.,1.));
#545=DIRECTION('ref_axis',(0.707106781186548,-0.707106781186547,0.));
#546=DIRECTION('center_axis',(0.,0.,1.));
#547=DIRECTION('ref_axis',(0.707106781186548,-0.707106781186547,0.));
#548=DIRECTION('',(0.,0.,1.));
#549=DIRECTION('center_axis',(0.,0.,1.));
#550=DIRECTION('ref_axis',(-0.707106781186547,0.707106781186548,0.));
#551=DIRECTION('',(0.,0.,-1.));
#552=DIRECTION('center_axis',(0.,0.,1.));
#553=DIRECTION('ref_axis',(-0.707106781186547,0.707106781186548,0.));
#554=DIRECTION('',(0.,0.,1.));
#555=DIRECTION('center_axis',(0.,1.,0.));
#556=DIRECTION('ref_axis',(-1.,0.,0.));
#557=DIRECTION('',(0.,0.,1.));
#558=DIRECTION('',(-1.,0.,0.));
#559=DIRECTION('center_axis',(0.,0.,1.));
#560=DIRECTION('ref_axis',(0.707106781186548,0.707106781186548,0.));
#561=DIRECTION('',(0.,0.,-1.));
#562=DIRECTION('center_axis',(0.,0.,1.));
#563=DIRECTION('ref_axis',(0.707106781186548,0.707106781186548,0.));
#564=DIRECTION('center_axis',(0.,1.,0.));
#565=DIRECTION('ref_axis',(-1.,0.,0.));
#566=DIRECTION('',(-1.,0.,0.));
#567=DIRECTION('',(0.,0.,-1.));
#568=DIRECTION('',(-1.,0.,0.));
#569=DIRECTION('',(0.,0.,1.));
#570=DIRECTION('center_axis',(1.,0.,0.));
#571=DIRECTION('ref_axis',(0.,1.,0.));
#572=DIRECTION('',(0.,1.,0.));
#573=DIRECTION('',(0.,1.,0.));
#574=DIRECTION('',(0.,0.,1.));
#575=DIRECTION('center_axis',(0.,-1.,0.));
#576=DIRECTION('ref_axis',(1.,0.,0.));
#577=DIRECTION('',(1.,0.,0.));
#578=DIRECTION('',(1.,0.,0.));
#579=DIRECTION('',(0.,0.,1.));
#580=DIRECTION('center_axis',(0.,0.,1.));
#581=DIRECTION('ref_axis',(1.,0.,0.));
#582=DIRECTION('',(0.,1.,0.));
#583=DIRECTION('center_axis',(1.,0.,0.));
#584=DIRECTION('ref_axis',(0.,1.,0.));
#585=DIRECTION('',(0.,1.,0.));
#586=DIRECTION('',(0.,1.,0.));
#587=DIRECTION('center_axis',(-1.,0.,0.));
#588=DIRECTION('ref_axis',(0.,-1.,0.));
#589=DIRECTION('',(0.,1.,0.));
#590=DIRECTION('',(0.,0.,1.));
#591=DIRECTION('',(0.,-1.,0.));
#592=DIRECTION('',(0.,0.,1.));
#593=DIRECTION('center_axis',(0.,1.,0.));
#594=DIRECTION('ref_axis',(-1.,0.,0.));
#595=DIRECTION('',(1.,0.,0.));
#596=DIRECTION('',(-1.,0.,0.));
#597=DIRECTION('',(0.,0.,1.));
#598=DIRECTION('center_axis',(0.,-1.,0.));
#599=DIRECTION('ref_axis',(1.,0.,0.));
#600=DIRECTION('',(-1.,0.,0.));
#601=DIRECTION('',(0.,0.,-1.));
#602=DIRECTION('',(1.,0.,0.));
#603=DIRECTION('center_axis',(0.,0.,1.));
#604=DIRECTION('ref_axis',(1.,0.,0.));
#605=DIRECTION('',(0.,-1.,0.));
#606=DIRECTION('center_axis',(0.,0.,-1.));
#607=DIRECTION('ref_axis',(-1.,0.,0.));
#608=DIRECTION('center_axis',(0.,0.,-1.));
#609=DIRECTION('ref_axis',(-1.,0.,0.));
#610=DIRECTION('',(0.707106781186547,8.65956056235493E-17,-0.707106781186548));
#611=DIRECTION('center_axis',(0.,0.,1.));
#612=DIRECTION('ref_axis',(-1.,0.,0.));
#613=DIRECTION('center_axis',(0.,0.,1.));
#614=DIRECTION('ref_axis',(-1.,0.,0.));
#615=DIRECTION('',(0.,0.,-1.));
#616=DIRECTION('center_axis',(0.,0.,-1.));
#617=DIRECTION('ref_axis',(1.83697019872103E-16,-1.,0.));
#618=DIRECTION('center_axis',(0.,0.,-1.));
#619=DIRECTION('ref_axis',(-1.,0.,0.));
#620=DIRECTION('center_axis',(0.,0.,1.));
#621=DIRECTION('ref_axis',(-1.,0.,0.));
#622=DIRECTION('center_axis',(0.,0.,1.));
#623=DIRECTION('ref_axis',(-1.,0.,0.));
#624=DIRECTION('center_axis',(0.,0.,1.));
#625=DIRECTION('ref_axis',(-1.,0.,0.));
#626=DIRECTION('',(-1.,0.,0.));
#627=DIRECTION('center_axis',(0.,-1.,0.));
#628=DIRECTION('ref_axis',(-1.,0.,0.));
#629=DIRECTION('',(0.,0.,1.));
#630=DIRECTION('',(-1.,0.,0.));
#631=DIRECTION('',(0.,0.,-1.));
#632=DIRECTION('center_axis',(0.,0.,1.));
#633=DIRECTION('ref_axis',(-1.,0.,0.));
#634=DIRECTION('center_axis',(0.,0.,-1.));
#635=DIRECTION('ref_axis',(-1.,0.,0.));
#636=DIRECTION('center_axis',(0.,0.,1.));
#637=DIRECTION('ref_axis',(-1.,0.,0.));
#638=DIRECTION('',(0.,0.,-1.));
#639=DIRECTION('center_axis',(-1.,0.,0.));
#640=DIRECTION('ref_axis',(0.,-1.,0.));
#641=DIRECTION('',(0.,-1.,0.));
#642=DIRECTION('',(0.,-1.,0.));
#643=DIRECTION('center_axis',(0.,0.,1.));
#644=DIRECTION('ref_axis',(1.,0.,0.));
#645=CARTESIAN_POINT('',(0.,0.,0.));
#646=CARTESIAN_POINT('Origin',(1.,1.,0.));
#647=CARTESIAN_POINT('',(1.,0.,4.5));
#648=CARTESIAN_POINT('',(0.,0.999999999999999,4.5));
#649=CARTESIAN_POINT('Origin',(1.,1.,4.5));
#650=CARTESIAN_POINT('',(0.,0.999999999999999,0.));
#651=CARTESIAN_POINT('',(0.,1.,0.));
#652=CARTESIAN_POINT('',(1.,0.,0.));
#653=CARTESIAN_POINT('Origin',(1.,1.,0.));
#654=CARTESIAN_POINT('',(1.,0.,0.));
#655=CARTESIAN_POINT('Origin',(5.9,6.,4.5));
#656=CARTESIAN_POINT('',(10.8,0.,4.5));
#657=CARTESIAN_POINT('',(0.,0.,4.5));
#658=CARTESIAN_POINT('',(11.8,1.,4.5));
#659=CARTESIAN_POINT('Origin',(10.8,1.,4.5));
#660=CARTESIAN_POINT('',(11.8,11.,4.5));
#661=CARTESIAN_POINT('',(11.8,0.,4.5));
#662=CARTESIAN_POINT('',(10.8,12.,4.5));
#663=CARTESIAN_POINT('Origin',(10.8,11.,4.5));
#664=CARTESIAN_POINT('',(1.,12.,4.5));
#665=CARTESIAN_POINT('',(11.8,12.,4.5));
#666=CARTESIAN_POINT('',(0.,11.,4.5));
#667=CARTESIAN_POINT('Origin',(1.,11.,4.5));
#668=CARTESIAN_POINT('',(0.,12.,4.5));
#669=CARTESIAN_POINT('',(9.4,6.,4.5));
#670=CARTESIAN_POINT('Origin',(5.9,6.,4.5));
#671=CARTESIAN_POINT('Origin',(0.,0.,0.));
#672=CARTESIAN_POINT('',(10.8,0.,0.));
#673=CARTESIAN_POINT('',(0.,0.,0.));
#674=CARTESIAN_POINT('',(10.8,0.,0.));
#675=CARTESIAN_POINT('Origin',(10.8,1.,0.));
#676=CARTESIAN_POINT('',(11.8,1.,0.));
#677=CARTESIAN_POINT('Origin',(10.8,1.,0.));
#678=CARTESIAN_POINT('',(11.8,1.,0.));
#679=CARTESIAN_POINT('Origin',(1.,11.,0.));
#680=CARTESIAN_POINT('',(1.,12.,0.));
#681=CARTESIAN_POINT('',(1.,12.,0.));
#682=CARTESIAN_POINT('',(0.,11.,0.));
#683=CARTESIAN_POINT('Origin',(1.,11.,0.));
#684=CARTESIAN_POINT('',(0.,11.,0.));
#685=CARTESIAN_POINT('Origin',(11.8,12.,0.));
#686=CARTESIAN_POINT('',(10.8,12.,0.));
#687=CARTESIAN_POINT('',(10.8,12.,0.));
#688=CARTESIAN_POINT('',(11.8,12.,0.));
#689=CARTESIAN_POINT('Origin',(10.8,11.,0.));
#690=CARTESIAN_POINT('',(11.8,11.,0.));
#691=CARTESIAN_POINT('',(11.8,11.,0.));
#692=CARTESIAN_POINT('Origin',(10.8,11.,0.));
#693=CARTESIAN_POINT('Origin',(12.8,7.,0.));
#694=CARTESIAN_POINT('',(12.8,7.,0.));
#695=CARTESIAN_POINT('',(11.8,7.,0.));
#696=CARTESIAN_POINT('',(12.8,7.,0.));
#697=CARTESIAN_POINT('',(11.8,7.,2.));
#698=CARTESIAN_POINT('',(11.8,7.,0.));
#699=CARTESIAN_POINT('',(12.8,7.,2.));
#700=CARTESIAN_POINT('',(12.8,7.,2.));
#701=CARTESIAN_POINT('',(12.8,7.,0.));
#702=CARTESIAN_POINT('Origin',(12.8,5.,0.));
#703=CARTESIAN_POINT('',(12.8,5.,0.));
#704=CARTESIAN_POINT('',(12.8,5.,0.));
#705=CARTESIAN_POINT('',(12.8,5.,2.));
#706=CARTESIAN_POINT('',(12.8,5.,2.));
#707=CARTESIAN_POINT('',(12.8,5.,0.));
#708=CARTESIAN_POINT('Origin',(11.8,5.,0.));
#709=CARTESIAN_POINT('',(11.8,5.,0.));
#710=CARTESIAN_POINT('',(10.8,5.,0.));
#711=CARTESIAN_POINT('',(11.8,5.,2.));
#712=CARTESIAN_POINT('',(10.8,5.,2.));
#713=CARTESIAN_POINT('',(11.8,5.,0.));
#714=CARTESIAN_POINT('Origin',(12.3,6.,2.));
#715=CARTESIAN_POINT('',(11.8,3.,2.));
#716=CARTESIAN_POINT('Origin',(11.8,0.,0.));
#717=CARTESIAN_POINT('',(11.8,0.,0.));
#718=CARTESIAN_POINT('',(11.8,0.,0.));
#719=CARTESIAN_POINT('Origin',(-1.,7.,0.));
#720=CARTESIAN_POINT('',(-1.,5.,0.));
#721=CARTESIAN_POINT('',(-1.,7.,0.));
#722=CARTESIAN_POINT('',(-1.,5.,0.));
#723=CARTESIAN_POINT('',(-1.,5.,2.));
#724=CARTESIAN_POINT('',(-1.,5.,0.));
#725=CARTESIAN_POINT('',(-1.,7.,2.));
#726=CARTESIAN_POINT('',(-1.,5.,2.));
#727=CARTESIAN_POINT('',(-1.,7.,0.));
#728=CARTESIAN_POINT('Origin',(0.,7.,0.));
#729=CARTESIAN_POINT('',(0.,7.,0.));
#730=CARTESIAN_POINT('',(-1.,7.,0.));
#731=CARTESIAN_POINT('',(0.,7.,2.));
#732=CARTESIAN_POINT('',(-1.,7.,2.));
#733=CARTESIAN_POINT('',(0.,7.,0.));
#734=CARTESIAN_POINT('Origin',(-1.,5.,0.));
#735=CARTESIAN_POINT('',(0.,5.,0.));
#736=CARTESIAN_POINT('',(1.,5.,0.));
#737=CARTESIAN_POINT('',(0.,5.,2.));
#738=CARTESIAN_POINT('',(0.,5.,0.));
#739=CARTESIAN_POINT('',(1.,5.,2.));
#740=CARTESIAN_POINT('Origin',(-0.5,6.,2.));
#741=CARTESIAN_POINT('',(0.,9.,2.));
#742=CARTESIAN_POINT('Origin',(5.9,6.,9.25));
#743=CARTESIAN_POINT('',(8.9,6.,9.5));
#744=CARTESIAN_POINT('Origin',(5.9,6.,9.5));
#745=CARTESIAN_POINT('',(9.4,6.,9.));
#746=CARTESIAN_POINT('',(9.15,6.,9.25));
#747=CARTESIAN_POINT('Origin',(5.9,6.,9.));
#748=CARTESIAN_POINT('Origin',(5.9,6.,4.5));
#749=CARTESIAN_POINT('',(9.4,6.,4.5));
#750=CARTESIAN_POINT('Origin',(5.9,6.,24.25));
#751=CARTESIAN_POINT('',(8.49807621135332,7.5,24.));
#752=CARTESIAN_POINT('',(7.9,7.5,24.5));
#753=CARTESIAN_POINT('Ctrl Pts',(8.49807621135332,7.5,24.));
#754=CARTESIAN_POINT('Ctrl Pts',(8.1718528233438,7.5,24.2825177413248));
#755=CARTESIAN_POINT('Ctrl Pts',(7.9,7.5,24.5));
#756=CARTESIAN_POINT('',(3.9,7.5,24.5));
#757=CARTESIAN_POINT('Origin',(5.9,6.,24.5));
#758=CARTESIAN_POINT('',(3.30192378864668,7.5,24.));
#759=CARTESIAN_POINT('Ctrl Pts',(3.90000000000001,7.5,24.5));
#760=CARTESIAN_POINT('Ctrl Pts',(3.62814717665619,7.5,24.2825177413248));
#761=CARTESIAN_POINT('Ctrl Pts',(3.30192378864668,7.5,24.));
#762=CARTESIAN_POINT('',(8.9,6.,24.));
#763=CARTESIAN_POINT('Origin',(5.9,6.,24.));
#764=CARTESIAN_POINT('Origin',(5.9,6.,24.));
#765=CARTESIAN_POINT('Origin',(5.9,6.,24.5));
#766=CARTESIAN_POINT('',(7.19903810567666,7.5,24.5));
#767=CARTESIAN_POINT('Origin',(8.49807621135332,7.5,24.5));
#768=CARTESIAN_POINT('',(8.49807621135332,7.5,14.5));
#769=CARTESIAN_POINT('',(8.49807621135332,7.5,9.5));
#770=CARTESIAN_POINT('',(3.30192378864668,7.5,14.5));
#771=CARTESIAN_POINT('',(5.9,7.5,14.5));
#772=CARTESIAN_POINT('',(3.30192378864668,7.5,9.5));
#773=CARTESIAN_POINT('Origin',(5.9,8.25,14.5));
#774=CARTESIAN_POINT('Origin',(5.9,6.,14.5));
#775=CARTESIAN_POINT('Origin',(5.9,6.,9.5));
#776=CARTESIAN_POINT('',(8.9,6.,9.5));
#777=CARTESIAN_POINT('Origin',(0.,12.,0.));
#778=CARTESIAN_POINT('',(0.,12.,0.));
#779=CARTESIAN_POINT('',(0.,12.,0.));
#780=CARTESIAN_POINT('Origin',(5.9,6.,0.));
#781=UNCERTAINTY_MEASURE_WITH_UNIT(LENGTH_MEASURE(0.01),#785,
'DISTANCE_ACCURACY_VALUE',
'Maximum model space distance between geometric entities at asserted c
onnectivities');
#782=UNCERTAINTY_MEASURE_WITH_UNIT(LENGTH_MEASURE(0.01),#785,
'DISTANCE_ACCURACY_VALUE',
'Maximum model space distance between geometric entities at asserted c
onnectivities');
#783=(
GEOMETRIC_REPRESENTATION_CONTEXT(3)
GLOBAL_UNCERTAINTY_ASSIGNED_CONTEXT((#781))
GLOBAL_UNIT_ASSIGNED_CONTEXT((#785,#787,#788))
REPRESENTATION_CONTEXT('','3D')
);
#784=(
GEOMETRIC_REPRESENTATION_CONTEXT(3)
GLOBAL_UNCERTAINTY_ASSIGNED_CONTEXT((#782))
GLOBAL_UNIT_ASSIGNED_CONTEXT((#785,#787,#788))
REPRESENTATION_CONTEXT('','3D')
);
#785=(
LENGTH_UNIT()
NAMED_UNIT(*)
SI_UNIT(.MILLI.,.METRE.)
);
#786=(
LENGTH_UNIT()
NAMED_UNIT(*)
SI_UNIT($,.METRE.)
);
#787=(
NAMED_UNIT(*)
PLANE_ANGLE_UNIT()
SI_UNIT($,.RADIAN.)
);
#788=(
NAMED_UNIT(*)
SI_UNIT($,.STERADIAN.)
SOLID_ANGLE_UNIT()
);
#789=SHAPE_DEFINITION_REPRESENTATION(#790,#791);
#790=PRODUCT_DEFINITION_SHAPE('',$,#793);
#791=SHAPE_REPRESENTATION('',(#475),#783);
#792=PRODUCT_DEFINITION_CONTEXT('part definition',#797,'design');
#793=PRODUCT_DEFINITION('Rot Enc','Rot Enc v1',#794,#792);
#794=PRODUCT_DEFINITION_FORMATION('',$,#799);
#795=PRODUCT_RELATED_PRODUCT_CATEGORY('Rot Enc v1','Rot Enc v1',(#799));
#796=APPLICATION_PROTOCOL_DEFINITION('international standard',
'automotive_design',2009,#797);
#797=APPLICATION_CONTEXT(
'Core Data for Automotive Mechanical Design Process');
#798=PRODUCT_CONTEXT('part definition',#797,'mechanical');
#799=PRODUCT('Rot Enc','Rot Enc v1',$,(#798));
#800=PRESENTATION_STYLE_ASSIGNMENT((#801));
#801=SURFACE_STYLE_USAGE(.BOTH.,#802);
#802=SURFACE_SIDE_STYLE('',(#803));
#803=SURFACE_STYLE_FILL_AREA(#804);
#804=FILL_AREA_STYLE('Steel - Satin',(#805));
#805=FILL_AREA_STYLE_COLOUR('Steel - Satin',#806);
#806=COLOUR_RGB('Steel - Satin',0.627450980392157,0.627450980392157,0.627450980392157);
ENDSEC;
END-ISO-10303-21;
