ISO-10303-21;
HEADER;
FILE_DESCRIPTION(('KiCad electronic assembly'),'2;1');
FILE_NAME('Adafruit Grayscale 1.5-inch 128x128 OLED.step',
  '2026-03-02T19:39:06',('Pcbnew'),('Kicad'),
  'Open CASCADE STEP processor 7.8','KiCad to STEP converter','Unknown'
  );
FILE_SCHEMA(('AUTOMOTIVE_DESIGN { 1 0 10303 214 1 1 1 1 }'));
ENDSEC;
DATA;
#1 = APPLICATION_PROTOCOL_DEFINITION('international standard',
  'automotive_design',2000,#2);
#2 = APPLICATION_CONTEXT(
  'core data for automotive mechanical design processes');
#3 = SHAPE_DEFINITION_REPRESENTATION(#4,#10);
#4 = PRODUCT_DEFINITION_SHAPE('','',#5);
#5 = PRODUCT_DEFINITION('design','',#6,#9);
#6 = PRODUCT_DEFINITION_FORMATION('','',#7);
#7 = PRODUCT('Adafruit Grayscale 1.5-inch 128x128 OLED 1',
  'Adafruit Grayscale 1.5-inch 128x128 OLED 1','',(#8));
#8 = PRODUCT_CONTEXT('',#2,'mechanical');
#9 = PRODUCT_DEFINITION_CONTEXT('part definition',#2,'design');
#10 = SHAPE_REPRESENTATION('',(#11,#15),#19);
#11 = AXIS2_PLACEMENT_3D('',#12,#13,#14);
#12 = CARTESIAN_POINT('',(0.,0.,0.));
#13 = DIRECTION('',(0.,0.,1.));
#14 = DIRECTION('',(1.,0.,-0.));
#15 = AXIS2_PLACEMENT_3D('',#16,#17,#18);
#16 = CARTESIAN_POINT('',(0.,0.,0.));
#17 = DIRECTION('',(0.,0.,1.));
#18 = DIRECTION('',(1.,0.,-0.));
#19 = ( GEOMETRIC_REPRESENTATION_CONTEXT(3) 
GLOBAL_UNCERTAINTY_ASSIGNED_CONTEXT((#23)) GLOBAL_UNIT_ASSIGNED_CONTEXT(
(#20,#21,#22)) REPRESENTATION_CONTEXT('Context #1',
  '3D Context with UNIT and UNCERTAINTY') );
#20 = ( LENGTH_UNIT() NAMED_UNIT(*) SI_UNIT(.MILLI.,.METRE.) );
#21 = ( NAMED_UNIT(*) PLANE_ANGLE_UNIT() SI_UNIT($,.RADIAN.) );
#22 = ( NAMED_UNIT(*) SI_UNIT($,.STERADIAN.) SOLID_ANGLE_UNIT() );
#23 = UNCERTAINTY_MEASURE_WITH_UNIT(LENGTH_MEASURE(1.E-07),#20,
  'distance_accuracy_value','confusion accuracy');
#24 = PRODUCT_RELATED_PRODUCT_CATEGORY('part',$,(#7));
#25 = SHAPE_DEFINITION_REPRESENTATION(#26,#32);
#26 = PRODUCT_DEFINITION_SHAPE('','',#27);
#27 = PRODUCT_DEFINITION('design','',#28,#31);
#28 = PRODUCT_DEFINITION_FORMATION('','',#29);
#29 = PRODUCT('Adafruit Grayscale 1.5-inch 128x128 OLED_PCB',
  'Adafruit Grayscale 1.5-inch 128x128 OLED_PCB','',(#30));
#30 = PRODUCT_CONTEXT('',#2,'mechanical');
#31 = PRODUCT_DEFINITION_CONTEXT('part definition',#2,'design');
#32 = ADVANCED_BREP_SHAPE_REPRESENTATION('',(#11,#33),#927);
#33 = MANIFOLD_SOLID_BREP('',#34);
#34 = CLOSED_SHELL('',(#35,#77,#108,#139,#357,#575,#592,#609,#626,#643,
    #660,#677,#694,#711,#723,#740,#757,#774,#791,#808,#825,#842,#859,
    #876,#893,#910));
#35 = ADVANCED_FACE('',(#36),#72,.T.);
#36 = FACE_BOUND('',#37,.T.);
#37 = EDGE_LOOP('',(#38,#48,#57,#65));
#38 = ORIENTED_EDGE('',*,*,#39,.T.);
#39 = EDGE_CURVE('',#40,#42,#44,.T.);
#40 = VERTEX_POINT('',#41);
#41 = CARTESIAN_POINT('',(163.7411,-81.5086,0.));
#42 = VERTEX_POINT('',#43);
#43 = CARTESIAN_POINT('',(163.7411,-81.5086,1.51));
#44 = LINE('',#45,#46);
#45 = CARTESIAN_POINT('',(163.7411,-81.5086,0.));
#46 = VECTOR('',#47,1.);
#47 = DIRECTION('',(0.,0.,1.));
#48 = ORIENTED_EDGE('',*,*,#49,.T.);
#49 = EDGE_CURVE('',#42,#50,#52,.T.);
#50 = VERTEX_POINT('',#51);
#51 = CARTESIAN_POINT('',(166.2811,-84.0486,1.51));
#52 = CIRCLE('',#53,2.540000765514);
#53 = AXIS2_PLACEMENT_3D('',#54,#55,#56);
#54 = CARTESIAN_POINT('',(163.74109923448,-84.04860076551,1.51));
#55 = DIRECTION('',(0.,0.,-1.));
#56 = DIRECTION('',(3.01383458606E-07,1.,0.));
#57 = ORIENTED_EDGE('',*,*,#58,.F.);
#58 = EDGE_CURVE('',#59,#50,#61,.T.);
#59 = VERTEX_POINT('',#60);
#60 = CARTESIAN_POINT('',(166.2811,-84.0486,0.));
#61 = LINE('',#62,#63);
#62 = CARTESIAN_POINT('',(166.2811,-84.0486,0.));
#63 = VECTOR('',#64,1.);
#64 = DIRECTION('',(0.,0.,1.));
#65 = ORIENTED_EDGE('',*,*,#66,.F.);
#66 = EDGE_CURVE('',#40,#59,#67,.T.);
#67 = CIRCLE('',#68,2.540000765514);
#68 = AXIS2_PLACEMENT_3D('',#69,#70,#71);
#69 = CARTESIAN_POINT('',(163.74109923448,-84.04860076551,0.));
#70 = DIRECTION('',(0.,0.,-1.));
#71 = DIRECTION('',(3.01383458606E-07,1.,0.));
#72 = CYLINDRICAL_SURFACE('',#73,2.540000765514);
#73 = AXIS2_PLACEMENT_3D('',#74,#75,#76);
#74 = CARTESIAN_POINT('',(163.74109923448,-84.04860076551,0.));
#75 = DIRECTION('',(0.,0.,-1.));
#76 = DIRECTION('',(3.01383458606E-07,1.,0.));
#77 = ADVANCED_FACE('',(#78),#103,.T.);
#78 = FACE_BOUND('',#79,.T.);
#79 = EDGE_LOOP('',(#80,#90,#96,#97));
#80 = ORIENTED_EDGE('',*,*,#81,.T.);
#81 = EDGE_CURVE('',#82,#84,#86,.T.);
#82 = VERTEX_POINT('',#83);
#83 = CARTESIAN_POINT('',(133.2611,-81.5086,0.));
#84 = VERTEX_POINT('',#85);
#85 = CARTESIAN_POINT('',(133.2611,-81.5086,1.51));
#86 = LINE('',#87,#88);
#87 = CARTESIAN_POINT('',(133.2611,-81.5086,0.));
#88 = VECTOR('',#89,1.);
#89 = DIRECTION('',(0.,0.,1.));
#90 = ORIENTED_EDGE('',*,*,#91,.T.);
#91 = EDGE_CURVE('',#84,#42,#92,.T.);
#92 = LINE('',#93,#94);
#93 = CARTESIAN_POINT('',(133.2611,-81.5086,1.51));
#94 = VECTOR('',#95,1.);
#95 = DIRECTION('',(1.,0.,0.));
#96 = ORIENTED_EDGE('',*,*,#39,.F.);
#97 = ORIENTED_EDGE('',*,*,#98,.F.);
#98 = EDGE_CURVE('',#82,#40,#99,.T.);
#99 = LINE('',#100,#101);
#100 = CARTESIAN_POINT('',(133.2611,-81.5086,0.));
#101 = VECTOR('',#102,1.);
#102 = DIRECTION('',(1.,0.,0.));
#103 = PLANE('',#104);
#104 = AXIS2_PLACEMENT_3D('',#105,#106,#107);
#105 = CARTESIAN_POINT('',(133.2611,-81.5086,0.));
#106 = DIRECTION('',(0.,1.,0.));
#107 = DIRECTION('',(1.,0.,0.));
#108 = ADVANCED_FACE('',(#109),#134,.T.);
#109 = FACE_BOUND('',#110,.T.);
#110 = EDGE_LOOP('',(#111,#112,#120,#128));
#111 = ORIENTED_EDGE('',*,*,#58,.T.);
#112 = ORIENTED_EDGE('',*,*,#113,.T.);
#113 = EDGE_CURVE('',#50,#114,#116,.T.);
#114 = VERTEX_POINT('',#115);
#115 = CARTESIAN_POINT('',(166.2811,-125.9586,1.51));
#116 = LINE('',#117,#118);
#117 = CARTESIAN_POINT('',(166.2811,-84.0486,1.51));
#118 = VECTOR('',#119,1.);
#119 = DIRECTION('',(0.,-1.,0.));
#120 = ORIENTED_EDGE('',*,*,#121,.F.);
#121 = EDGE_CURVE('',#122,#114,#124,.T.);
#122 = VERTEX_POINT('',#123);
#123 = CARTESIAN_POINT('',(166.2811,-125.9586,0.));
#124 = LINE('',#125,#126);
#125 = CARTESIAN_POINT('',(166.2811,-125.9586,0.));
#126 = VECTOR('',#127,1.);
#127 = DIRECTION('',(0.,0.,1.));
#128 = ORIENTED_EDGE('',*,*,#129,.F.);
#129 = EDGE_CURVE('',#59,#122,#130,.T.);
#130 = LINE('',#131,#132);
#131 = CARTESIAN_POINT('',(166.2811,-84.0486,0.));
#132 = VECTOR('',#133,1.);
#133 = DIRECTION('',(0.,-1.,0.));
#134 = PLANE('',#135);
#135 = AXIS2_PLACEMENT_3D('',#136,#137,#138);
#136 = CARTESIAN_POINT('',(166.2811,-84.0486,0.));
#137 = DIRECTION('',(1.,0.,-0.));
#138 = DIRECTION('',(0.,-1.,0.));
#139 = ADVANCED_FACE('',(#140,#220,#231,#242,#253,#264,#275,#286,#297,
    #308,#319,#330,#341),#352,.F.);
#140 = FACE_BOUND('',#141,.F.);
#141 = EDGE_LOOP('',(#142,#143,#144,#153,#161,#170,#179,#187,#195,#203,
    #212,#219));
#142 = ORIENTED_EDGE('',*,*,#66,.F.);
#143 = ORIENTED_EDGE('',*,*,#98,.F.);
#144 = ORIENTED_EDGE('',*,*,#145,.F.);
#145 = EDGE_CURVE('',#146,#82,#148,.T.);
#146 = VERTEX_POINT('',#147);
#147 = CARTESIAN_POINT('',(130.7211,-84.0486,0.));
#148 = CIRCLE('',#149,2.540000765514);
#149 = AXIS2_PLACEMENT_3D('',#150,#151,#152);
#150 = CARTESIAN_POINT('',(133.26110076551,-84.04860076551,0.));
#151 = DIRECTION('',(0.,0.,-1.));
#152 = DIRECTION('',(-1.,3.013834418216E-07,0.));
#153 = ORIENTED_EDGE('',*,*,#154,.F.);
#154 = EDGE_CURVE('',#155,#146,#157,.T.);
#155 = VERTEX_POINT('',#156);
#156 = CARTESIAN_POINT('',(130.7211,-125.9586,0.));
#157 = LINE('',#158,#159);
#158 = CARTESIAN_POINT('',(130.7211,-125.9586,0.));
#159 = VECTOR('',#160,1.);
#160 = DIRECTION('',(0.,1.,0.));
#161 = ORIENTED_EDGE('',*,*,#162,.F.);
#162 = EDGE_CURVE('',#163,#155,#165,.T.);
#163 = VERTEX_POINT('',#164);
#164 = CARTESIAN_POINT('',(133.2611,-128.4986,0.));
#165 = CIRCLE('',#166,2.540000765514);
#166 = AXIS2_PLACEMENT_3D('',#167,#168,#169);
#167 = CARTESIAN_POINT('',(133.26110076551,-125.9585992344,0.));
#168 = DIRECTION('',(0.,0.,-1.));
#169 = DIRECTION('',(-3.013834362268E-07,-1.,-0.));
#170 = ORIENTED_EDGE('',*,*,#171,.F.);
#171 = EDGE_CURVE('',#172,#163,#174,.T.);
#172 = VERTEX_POINT('',#173);
#173 = CARTESIAN_POINT('',(135.8011,-125.9586,0.));
#174 = CIRCLE('',#175,2.540000765514);
#175 = AXIS2_PLACEMENT_3D('',#176,#177,#178);
#176 = CARTESIAN_POINT('',(133.26109923448,-125.9585992344,0.));
#177 = DIRECTION('',(0.,0.,-1.));
#178 = DIRECTION('',(1.,-3.013834362268E-07,0.));
#179 = ORIENTED_EDGE('',*,*,#180,.F.);
#180 = EDGE_CURVE('',#181,#172,#183,.T.);
#181 = VERTEX_POINT('',#182);
#182 = CARTESIAN_POINT('',(135.8011,-123.4186,0.));
#183 = LINE('',#184,#185);
#184 = CARTESIAN_POINT('',(135.8011,-123.4186,0.));
#185 = VECTOR('',#186,1.);
#186 = DIRECTION('',(0.,-1.,0.));
#187 = ORIENTED_EDGE('',*,*,#188,.F.);
#188 = EDGE_CURVE('',#189,#181,#191,.T.);
#189 = VERTEX_POINT('',#190);
#190 = CARTESIAN_POINT('',(161.2011,-123.4186,0.));
#191 = LINE('',#192,#193);
#192 = CARTESIAN_POINT('',(161.2011,-123.4186,0.));
#193 = VECTOR('',#194,1.);
#194 = DIRECTION('',(-1.,0.,0.));
#195 = ORIENTED_EDGE('',*,*,#196,.F.);
#196 = EDGE_CURVE('',#197,#189,#199,.T.);
#197 = VERTEX_POINT('',#198);
#198 = CARTESIAN_POINT('',(161.2011,-125.9586,0.));
#199 = LINE('',#200,#201);
#200 = CARTESIAN_POINT('',(161.2011,-125.9586,0.));
#201 = VECTOR('',#202,1.);
#202 = DIRECTION('',(0.,1.,0.));
#203 = ORIENTED_EDGE('',*,*,#204,.F.);
#204 = EDGE_CURVE('',#205,#197,#207,.T.);
#205 = VERTEX_POINT('',#206);
#206 = CARTESIAN_POINT('',(163.7411,-128.4986,0.));
#207 = CIRCLE('',#208,2.540000765514);
#208 = AXIS2_PLACEMENT_3D('',#209,#210,#211);
#209 = CARTESIAN_POINT('',(163.74110076551,-125.9585992344,0.));
#210 = DIRECTION('',(0.,0.,-1.));
#211 = DIRECTION('',(-3.01383458606E-07,-1.,-0.));
#212 = ORIENTED_EDGE('',*,*,#213,.F.);
#213 = EDGE_CURVE('',#122,#205,#214,.T.);
#214 = CIRCLE('',#215,2.540000765514);
#215 = AXIS2_PLACEMENT_3D('',#216,#217,#218);
#216 = CARTESIAN_POINT('',(163.74109923448,-125.9585992344,0.));
#217 = DIRECTION('',(0.,0.,-1.));
#218 = DIRECTION('',(1.,-3.013834642009E-07,0.));
#219 = ORIENTED_EDGE('',*,*,#129,.F.);
#220 = FACE_BOUND('',#221,.F.);
#221 = EDGE_LOOP('',(#222));
#222 = ORIENTED_EDGE('',*,*,#223,.T.);
#223 = EDGE_CURVE('',#224,#224,#226,.T.);
#224 = VERTEX_POINT('',#225);
#225 = CARTESIAN_POINT('',(133.2611,-127.2086,0.));
#226 = CIRCLE('',#227,1.25);
#227 = AXIS2_PLACEMENT_3D('',#228,#229,#230);
#228 = CARTESIAN_POINT('',(133.2611,-125.9586,0.));
#229 = DIRECTION('',(-0.,0.,-1.));
#230 = DIRECTION('',(-0.,-1.,0.));
#231 = FACE_BOUND('',#232,.F.);
#232 = EDGE_LOOP('',(#233));
#233 = ORIENTED_EDGE('',*,*,#234,.T.);
#234 = EDGE_CURVE('',#235,#235,#237,.T.);
#235 = VERTEX_POINT('',#236);
#236 = CARTESIAN_POINT('',(163.7411,-127.2086,0.));
#237 = CIRCLE('',#238,1.25);
#238 = AXIS2_PLACEMENT_3D('',#239,#240,#241);
#239 = CARTESIAN_POINT('',(163.7411,-125.9586,0.));
#240 = DIRECTION('',(-0.,0.,-1.));
#241 = DIRECTION('',(-0.,-1.,0.));
#242 = FACE_BOUND('',#243,.F.);
#243 = EDGE_LOOP('',(#244));
#244 = ORIENTED_EDGE('',*,*,#245,.T.);
#245 = EDGE_CURVE('',#246,#246,#248,.T.);
#246 = VERTEX_POINT('',#247);
#247 = CARTESIAN_POINT('',(133.2611,-85.2986,0.));
#248 = CIRCLE('',#249,1.25);
#249 = AXIS2_PLACEMENT_3D('',#250,#251,#252);
#250 = CARTESIAN_POINT('',(133.2611,-84.0486,0.));
#251 = DIRECTION('',(-0.,0.,-1.));
#252 = DIRECTION('',(-0.,-1.,0.));
#253 = FACE_BOUND('',#254,.F.);
#254 = EDGE_LOOP('',(#255));
#255 = ORIENTED_EDGE('',*,*,#256,.T.);
#256 = EDGE_CURVE('',#257,#257,#259,.T.);
#257 = VERTEX_POINT('',#258);
#258 = CARTESIAN_POINT('',(139.6111,-84.5486,0.));
#259 = CIRCLE('',#260,0.5);
#260 = AXIS2_PLACEMENT_3D('',#261,#262,#263);
#261 = CARTESIAN_POINT('',(139.6111,-84.0486,0.));
#262 = DIRECTION('',(-0.,0.,-1.));
#263 = DIRECTION('',(-0.,-1.,0.));
#264 = FACE_BOUND('',#265,.F.);
#265 = EDGE_LOOP('',(#266));
#266 = ORIENTED_EDGE('',*,*,#267,.T.);
#267 = EDGE_CURVE('',#268,#268,#270,.T.);
#268 = VERTEX_POINT('',#269);
#269 = CARTESIAN_POINT('',(142.1511,-84.5486,0.));
#270 = CIRCLE('',#271,0.5);
#271 = AXIS2_PLACEMENT_3D('',#272,#273,#274);
#272 = CARTESIAN_POINT('',(142.1511,-84.0486,0.));
#273 = DIRECTION('',(-0.,0.,-1.));
#274 = DIRECTION('',(-0.,-1.,0.));
#275 = FACE_BOUND('',#276,.F.);
#276 = EDGE_LOOP('',(#277));
#277 = ORIENTED_EDGE('',*,*,#278,.T.);
#278 = EDGE_CURVE('',#279,#279,#281,.T.);
#279 = VERTEX_POINT('',#280);
#280 = CARTESIAN_POINT('',(144.6911,-84.5486,0.));
#281 = CIRCLE('',#282,0.5);
#282 = AXIS2_PLACEMENT_3D('',#283,#284,#285);
#283 = CARTESIAN_POINT('',(144.6911,-84.0486,0.));
#284 = DIRECTION('',(-0.,0.,-1.));
#285 = DIRECTION('',(-0.,-1.,0.));
#286 = FACE_BOUND('',#287,.F.);
#287 = EDGE_LOOP('',(#288));
#288 = ORIENTED_EDGE('',*,*,#289,.T.);
#289 = EDGE_CURVE('',#290,#290,#292,.T.);
#290 = VERTEX_POINT('',#291);
#291 = CARTESIAN_POINT('',(147.2311,-84.5486,0.));
#292 = CIRCLE('',#293,0.5);
#293 = AXIS2_PLACEMENT_3D('',#294,#295,#296);
#294 = CARTESIAN_POINT('',(147.2311,-84.0486,0.));
#295 = DIRECTION('',(-0.,0.,-1.));
#296 = DIRECTION('',(-0.,-1.,0.));
#297 = FACE_BOUND('',#298,.F.);
#298 = EDGE_LOOP('',(#299));
#299 = ORIENTED_EDGE('',*,*,#300,.T.);
#300 = EDGE_CURVE('',#301,#301,#303,.T.);
#301 = VERTEX_POINT('',#302);
#302 = CARTESIAN_POINT('',(149.7711,-84.5486,0.));
#303 = CIRCLE('',#304,0.5);
#304 = AXIS2_PLACEMENT_3D('',#305,#306,#307);
#305 = CARTESIAN_POINT('',(149.7711,-84.0486,0.));
#306 = DIRECTION('',(-0.,0.,-1.));
#307 = DIRECTION('',(-0.,-1.,0.));
#308 = FACE_BOUND('',#309,.F.);
#309 = EDGE_LOOP('',(#310));
#310 = ORIENTED_EDGE('',*,*,#311,.T.);
#311 = EDGE_CURVE('',#312,#312,#314,.T.);
#312 = VERTEX_POINT('',#313);
#313 = CARTESIAN_POINT('',(152.3111,-84.5486,0.));
#314 = CIRCLE('',#315,0.5);
#315 = AXIS2_PLACEMENT_3D('',#316,#317,#318);
#316 = CARTESIAN_POINT('',(152.3111,-84.0486,0.));
#317 = DIRECTION('',(-0.,0.,-1.));
#318 = DIRECTION('',(-0.,-1.,0.));
#319 = FACE_BOUND('',#320,.F.);
#320 = EDGE_LOOP('',(#321));
#321 = ORIENTED_EDGE('',*,*,#322,.T.);
#322 = EDGE_CURVE('',#323,#323,#325,.T.);
#323 = VERTEX_POINT('',#324);
#324 = CARTESIAN_POINT('',(154.8511,-84.5486,0.));
#325 = CIRCLE('',#326,0.5);
#326 = AXIS2_PLACEMENT_3D('',#327,#328,#329);
#327 = CARTESIAN_POINT('',(154.8511,-84.0486,0.));
#328 = DIRECTION('',(-0.,0.,-1.));
#329 = DIRECTION('',(-0.,-1.,0.));
#330 = FACE_BOUND('',#331,.F.);
#331 = EDGE_LOOP('',(#332));
#332 = ORIENTED_EDGE('',*,*,#333,.T.);
#333 = EDGE_CURVE('',#334,#334,#336,.T.);
#334 = VERTEX_POINT('',#335);
#335 = CARTESIAN_POINT('',(157.3911,-84.5486,0.));
#336 = CIRCLE('',#337,0.5);
#337 = AXIS2_PLACEMENT_3D('',#338,#339,#340);
#338 = CARTESIAN_POINT('',(157.3911,-84.0486,0.));
#339 = DIRECTION('',(-0.,0.,-1.));
#340 = DIRECTION('',(-0.,-1.,0.));
#341 = FACE_BOUND('',#342,.F.);
#342 = EDGE_LOOP('',(#343));
#343 = ORIENTED_EDGE('',*,*,#344,.T.);
#344 = EDGE_CURVE('',#345,#345,#347,.T.);
#345 = VERTEX_POINT('',#346);
#346 = CARTESIAN_POINT('',(163.7411,-85.2986,0.));
#347 = CIRCLE('',#348,1.25);
#348 = AXIS2_PLACEMENT_3D('',#349,#350,#351);
#349 = CARTESIAN_POINT('',(163.7411,-84.0486,0.));
#350 = DIRECTION('',(-0.,0.,-1.));
#351 = DIRECTION('',(-0.,-1.,0.));
#352 = PLANE('',#353);
#353 = AXIS2_PLACEMENT_3D('',#354,#355,#356);
#354 = CARTESIAN_POINT('',(0.,0.,0.));
#355 = DIRECTION('',(0.,0.,1.));
#356 = DIRECTION('',(1.,0.,-0.));
#357 = ADVANCED_FACE('',(#358,#438,#449,#460,#471,#482,#493,#504,#515,
    #526,#537,#548,#559),#570,.T.);
#358 = FACE_BOUND('',#359,.T.);
#359 = EDGE_LOOP('',(#360,#361,#362,#371,#379,#388,#397,#405,#413,#421,
    #430,#437));
#360 = ORIENTED_EDGE('',*,*,#49,.F.);
#361 = ORIENTED_EDGE('',*,*,#91,.F.);
#362 = ORIENTED_EDGE('',*,*,#363,.F.);
#363 = EDGE_CURVE('',#364,#84,#366,.T.);
#364 = VERTEX_POINT('',#365);
#365 = CARTESIAN_POINT('',(130.7211,-84.0486,1.51));
#366 = CIRCLE('',#367,2.540000765514);
#367 = AXIS2_PLACEMENT_3D('',#368,#369,#370);
#368 = CARTESIAN_POINT('',(133.26110076551,-84.04860076551,1.51));
#369 = DIRECTION('',(0.,0.,-1.));
#370 = DIRECTION('',(-1.,3.013834418216E-07,0.));
#371 = ORIENTED_EDGE('',*,*,#372,.F.);
#372 = EDGE_CURVE('',#373,#364,#375,.T.);
#373 = VERTEX_POINT('',#374);
#374 = CARTESIAN_POINT('',(130.7211,-125.9586,1.51));
#375 = LINE('',#376,#377);
#376 = CARTESIAN_POINT('',(130.7211,-125.9586,1.51));
#377 = VECTOR('',#378,1.);
#378 = DIRECTION('',(0.,1.,0.));
#379 = ORIENTED_EDGE('',*,*,#380,.F.);
#380 = EDGE_CURVE('',#381,#373,#383,.T.);
#381 = VERTEX_POINT('',#382);
#382 = CARTESIAN_POINT('',(133.2611,-128.4986,1.51));
#383 = CIRCLE('',#384,2.540000765514);
#384 = AXIS2_PLACEMENT_3D('',#385,#386,#387);
#385 = CARTESIAN_POINT('',(133.26110076551,-125.9585992344,1.51));
#386 = DIRECTION('',(0.,0.,-1.));
#387 = DIRECTION('',(-3.013834362268E-07,-1.,-0.));
#388 = ORIENTED_EDGE('',*,*,#389,.F.);
#389 = EDGE_CURVE('',#390,#381,#392,.T.);
#390 = VERTEX_POINT('',#391);
#391 = CARTESIAN_POINT('',(135.8011,-125.9586,1.51));
#392 = CIRCLE('',#393,2.540000765514);
#393 = AXIS2_PLACEMENT_3D('',#394,#395,#396);
#394 = CARTESIAN_POINT('',(133.26109923448,-125.9585992344,1.51));
#395 = DIRECTION('',(0.,0.,-1.));
#396 = DIRECTION('',(1.,-3.013834362268E-07,0.));
#397 = ORIENTED_EDGE('',*,*,#398,.F.);
#398 = EDGE_CURVE('',#399,#390,#401,.T.);
#399 = VERTEX_POINT('',#400);
#400 = CARTESIAN_POINT('',(135.8011,-123.4186,1.51));
#401 = LINE('',#402,#403);
#402 = CARTESIAN_POINT('',(135.8011,-123.4186,1.51));
#403 = VECTOR('',#404,1.);
#404 = DIRECTION('',(0.,-1.,0.));
#405 = ORIENTED_EDGE('',*,*,#406,.F.);
#406 = EDGE_CURVE('',#407,#399,#409,.T.);
#407 = VERTEX_POINT('',#408);
#408 = CARTESIAN_POINT('',(161.2011,-123.4186,1.51));
#409 = LINE('',#410,#411);
#410 = CARTESIAN_POINT('',(161.2011,-123.4186,1.51));
#411 = VECTOR('',#412,1.);
#412 = DIRECTION('',(-1.,0.,0.));
#413 = ORIENTED_EDGE('',*,*,#414,.F.);
#414 = EDGE_CURVE('',#415,#407,#417,.T.);
#415 = VERTEX_POINT('',#416);
#416 = CARTESIAN_POINT('',(161.2011,-125.9586,1.51));
#417 = LINE('',#418,#419);
#418 = CARTESIAN_POINT('',(161.2011,-125.9586,1.51));
#419 = VECTOR('',#420,1.);
#420 = DIRECTION('',(0.,1.,0.));
#421 = ORIENTED_EDGE('',*,*,#422,.F.);
#422 = EDGE_CURVE('',#423,#415,#425,.T.);
#423 = VERTEX_POINT('',#424);
#424 = CARTESIAN_POINT('',(163.7411,-128.4986,1.51));
#425 = CIRCLE('',#426,2.540000765514);
#426 = AXIS2_PLACEMENT_3D('',#427,#428,#429);
#427 = CARTESIAN_POINT('',(163.74110076551,-125.9585992344,1.51));
#428 = DIRECTION('',(0.,0.,-1.));
#429 = DIRECTION('',(-3.01383458606E-07,-1.,-0.));
#430 = ORIENTED_EDGE('',*,*,#431,.F.);
#431 = EDGE_CURVE('',#114,#423,#432,.T.);
#432 = CIRCLE('',#433,2.540000765514);
#433 = AXIS2_PLACEMENT_3D('',#434,#435,#436);
#434 = CARTESIAN_POINT('',(163.74109923448,-125.9585992344,1.51));
#435 = DIRECTION('',(0.,0.,-1.));
#436 = DIRECTION('',(1.,-3.013834642009E-07,0.));
#437 = ORIENTED_EDGE('',*,*,#113,.F.);
#438 = FACE_BOUND('',#439,.T.);
#439 = EDGE_LOOP('',(#440));
#440 = ORIENTED_EDGE('',*,*,#441,.T.);
#441 = EDGE_CURVE('',#442,#442,#444,.T.);
#442 = VERTEX_POINT('',#443);
#443 = CARTESIAN_POINT('',(133.2611,-127.2086,1.51));
#444 = CIRCLE('',#445,1.25);
#445 = AXIS2_PLACEMENT_3D('',#446,#447,#448);
#446 = CARTESIAN_POINT('',(133.2611,-125.9586,1.51));
#447 = DIRECTION('',(-0.,0.,-1.));
#448 = DIRECTION('',(-0.,-1.,0.));
#449 = FACE_BOUND('',#450,.T.);
#450 = EDGE_LOOP('',(#451));
#451 = ORIENTED_EDGE('',*,*,#452,.T.);
#452 = EDGE_CURVE('',#453,#453,#455,.T.);
#453 = VERTEX_POINT('',#454);
#454 = CARTESIAN_POINT('',(163.7411,-127.2086,1.51));
#455 = CIRCLE('',#456,1.25);
#456 = AXIS2_PLACEMENT_3D('',#457,#458,#459);
#457 = CARTESIAN_POINT('',(163.7411,-125.9586,1.51));
#458 = DIRECTION('',(-0.,0.,-1.));
#459 = DIRECTION('',(-0.,-1.,0.));
#460 = FACE_BOUND('',#461,.T.);
#461 = EDGE_LOOP('',(#462));
#462 = ORIENTED_EDGE('',*,*,#463,.T.);
#463 = EDGE_CURVE('',#464,#464,#466,.T.);
#464 = VERTEX_POINT('',#465);
#465 = CARTESIAN_POINT('',(133.2611,-85.2986,1.51));
#466 = CIRCLE('',#467,1.25);
#467 = AXIS2_PLACEMENT_3D('',#468,#469,#470);
#468 = CARTESIAN_POINT('',(133.2611,-84.0486,1.51));
#469 = DIRECTION('',(-0.,0.,-1.));
#470 = DIRECTION('',(-0.,-1.,0.));
#471 = FACE_BOUND('',#472,.T.);
#472 = EDGE_LOOP('',(#473));
#473 = ORIENTED_EDGE('',*,*,#474,.T.);
#474 = EDGE_CURVE('',#475,#475,#477,.T.);
#475 = VERTEX_POINT('',#476);
#476 = CARTESIAN_POINT('',(139.6111,-84.5486,1.51));
#477 = CIRCLE('',#478,0.5);
#478 = AXIS2_PLACEMENT_3D('',#479,#480,#481);
#479 = CARTESIAN_POINT('',(139.6111,-84.0486,1.51));
#480 = DIRECTION('',(-0.,0.,-1.));
#481 = DIRECTION('',(-0.,-1.,0.));
#482 = FACE_BOUND('',#483,.T.);
#483 = EDGE_LOOP('',(#484));
#484 = ORIENTED_EDGE('',*,*,#485,.T.);
#485 = EDGE_CURVE('',#486,#486,#488,.T.);
#486 = VERTEX_POINT('',#487);
#487 = CARTESIAN_POINT('',(142.1511,-84.5486,1.51));
#488 = CIRCLE('',#489,0.5);
#489 = AXIS2_PLACEMENT_3D('',#490,#491,#492);
#490 = CARTESIAN_POINT('',(142.1511,-84.0486,1.51));
#491 = DIRECTION('',(-0.,0.,-1.));
#492 = DIRECTION('',(-0.,-1.,0.));
#493 = FACE_BOUND('',#494,.T.);
#494 = EDGE_LOOP('',(#495));
#495 = ORIENTED_EDGE('',*,*,#496,.T.);
#496 = EDGE_CURVE('',#497,#497,#499,.T.);
#497 = VERTEX_POINT('',#498);
#498 = CARTESIAN_POINT('',(144.6911,-84.5486,1.51));
#499 = CIRCLE('',#500,0.5);
#500 = AXIS2_PLACEMENT_3D('',#501,#502,#503);
#501 = CARTESIAN_POINT('',(144.6911,-84.0486,1.51));
#502 = DIRECTION('',(-0.,0.,-1.));
#503 = DIRECTION('',(-0.,-1.,0.));
#504 = FACE_BOUND('',#505,.T.);
#505 = EDGE_LOOP('',(#506));
#506 = ORIENTED_EDGE('',*,*,#507,.T.);
#507 = EDGE_CURVE('',#508,#508,#510,.T.);
#508 = VERTEX_POINT('',#509);
#509 = CARTESIAN_POINT('',(147.2311,-84.5486,1.51));
#510 = CIRCLE('',#511,0.5);
#511 = AXIS2_PLACEMENT_3D('',#512,#513,#514);
#512 = CARTESIAN_POINT('',(147.2311,-84.0486,1.51));
#513 = DIRECTION('',(-0.,0.,-1.));
#514 = DIRECTION('',(-0.,-1.,0.));
#515 = FACE_BOUND('',#516,.T.);
#516 = EDGE_LOOP('',(#517));
#517 = ORIENTED_EDGE('',*,*,#518,.T.);
#518 = EDGE_CURVE('',#519,#519,#521,.T.);
#519 = VERTEX_POINT('',#520);
#520 = CARTESIAN_POINT('',(149.7711,-84.5486,1.51));
#521 = CIRCLE('',#522,0.5);
#522 = AXIS2_PLACEMENT_3D('',#523,#524,#525);
#523 = CARTESIAN_POINT('',(149.7711,-84.0486,1.51));
#524 = DIRECTION('',(-0.,0.,-1.));
#525 = DIRECTION('',(-0.,-1.,0.));
#526 = FACE_BOUND('',#527,.T.);
#527 = EDGE_LOOP('',(#528));
#528 = ORIENTED_EDGE('',*,*,#529,.T.);
#529 = EDGE_CURVE('',#530,#530,#532,.T.);
#530 = VERTEX_POINT('',#531);
#531 = CARTESIAN_POINT('',(152.3111,-84.5486,1.51));
#532 = CIRCLE('',#533,0.5);
#533 = AXIS2_PLACEMENT_3D('',#534,#535,#536);
#534 = CARTESIAN_POINT('',(152.3111,-84.0486,1.51));
#535 = DIRECTION('',(-0.,0.,-1.));
#536 = DIRECTION('',(-0.,-1.,0.));
#537 = FACE_BOUND('',#538,.T.);
#538 = EDGE_LOOP('',(#539));
#539 = ORIENTED_EDGE('',*,*,#540,.T.);
#540 = EDGE_CURVE('',#541,#541,#543,.T.);
#541 = VERTEX_POINT('',#542);
#542 = CARTESIAN_POINT('',(154.8511,-84.5486,1.51));
#543 = CIRCLE('',#544,0.5);
#544 = AXIS2_PLACEMENT_3D('',#545,#546,#547);
#545 = CARTESIAN_POINT('',(154.8511,-84.0486,1.51));
#546 = DIRECTION('',(-0.,0.,-1.));
#547 = DIRECTION('',(-0.,-1.,0.));
#548 = FACE_BOUND('',#549,.T.);
#549 = EDGE_LOOP('',(#550));
#550 = ORIENTED_EDGE('',*,*,#551,.T.);
#551 = EDGE_CURVE('',#552,#552,#554,.T.);
#552 = VERTEX_POINT('',#553);
#553 = CARTESIAN_POINT('',(157.3911,-84.5486,1.51));
#554 = CIRCLE('',#555,0.5);
#555 = AXIS2_PLACEMENT_3D('',#556,#557,#558);
#556 = CARTESIAN_POINT('',(157.3911,-84.0486,1.51));
#557 = DIRECTION('',(-0.,0.,-1.));
#558 = DIRECTION('',(-0.,-1.,0.));
#559 = FACE_BOUND('',#560,.T.);
#560 = EDGE_LOOP('',(#561));
#561 = ORIENTED_EDGE('',*,*,#562,.T.);
#562 = EDGE_CURVE('',#563,#563,#565,.T.);
#563 = VERTEX_POINT('',#564);
#564 = CARTESIAN_POINT('',(163.7411,-85.2986,1.51));
#565 = CIRCLE('',#566,1.25);
#566 = AXIS2_PLACEMENT_3D('',#567,#568,#569);
#567 = CARTESIAN_POINT('',(163.7411,-84.0486,1.51));
#568 = DIRECTION('',(-0.,0.,-1.));
#569 = DIRECTION('',(-0.,-1.,0.));
#570 = PLANE('',#571);
#571 = AXIS2_PLACEMENT_3D('',#572,#573,#574);
#572 = CARTESIAN_POINT('',(0.,0.,1.51));
#573 = DIRECTION('',(0.,0.,1.));
#574 = DIRECTION('',(1.,0.,-0.));
#575 = ADVANCED_FACE('',(#576),#587,.T.);
#576 = FACE_BOUND('',#577,.T.);
#577 = EDGE_LOOP('',(#578,#584,#585,#586));
#578 = ORIENTED_EDGE('',*,*,#579,.T.);
#579 = EDGE_CURVE('',#146,#364,#580,.T.);
#580 = LINE('',#581,#582);
#581 = CARTESIAN_POINT('',(130.7211,-84.0486,0.));
#582 = VECTOR('',#583,1.);
#583 = DIRECTION('',(0.,0.,1.));
#584 = ORIENTED_EDGE('',*,*,#363,.T.);
#585 = ORIENTED_EDGE('',*,*,#81,.F.);
#586 = ORIENTED_EDGE('',*,*,#145,.F.);
#587 = CYLINDRICAL_SURFACE('',#588,2.540000765514);
#588 = AXIS2_PLACEMENT_3D('',#589,#590,#591);
#589 = CARTESIAN_POINT('',(133.26110076551,-84.04860076551,0.));
#590 = DIRECTION('',(0.,0.,-1.));
#591 = DIRECTION('',(-1.,3.013834418216E-07,0.));
#592 = ADVANCED_FACE('',(#593),#604,.T.);
#593 = FACE_BOUND('',#594,.T.);
#594 = EDGE_LOOP('',(#595,#596,#597,#603));
#595 = ORIENTED_EDGE('',*,*,#121,.T.);
#596 = ORIENTED_EDGE('',*,*,#431,.T.);
#597 = ORIENTED_EDGE('',*,*,#598,.F.);
#598 = EDGE_CURVE('',#205,#423,#599,.T.);
#599 = LINE('',#600,#601);
#600 = CARTESIAN_POINT('',(163.7411,-128.4986,0.));
#601 = VECTOR('',#602,1.);
#602 = DIRECTION('',(0.,0.,1.));
#603 = ORIENTED_EDGE('',*,*,#213,.F.);
#604 = CYLINDRICAL_SURFACE('',#605,2.540000765514);
#605 = AXIS2_PLACEMENT_3D('',#606,#607,#608);
#606 = CARTESIAN_POINT('',(163.74109923448,-125.9585992344,0.));
#607 = DIRECTION('',(0.,0.,-1.));
#608 = DIRECTION('',(1.,-3.013834642009E-07,0.));
#609 = ADVANCED_FACE('',(#610),#621,.T.);
#610 = FACE_BOUND('',#611,.T.);
#611 = EDGE_LOOP('',(#612,#618,#619,#620));
#612 = ORIENTED_EDGE('',*,*,#613,.T.);
#613 = EDGE_CURVE('',#155,#373,#614,.T.);
#614 = LINE('',#615,#616);
#615 = CARTESIAN_POINT('',(130.7211,-125.9586,0.));
#616 = VECTOR('',#617,1.);
#617 = DIRECTION('',(0.,0.,1.));
#618 = ORIENTED_EDGE('',*,*,#372,.T.);
#619 = ORIENTED_EDGE('',*,*,#579,.F.);
#620 = ORIENTED_EDGE('',*,*,#154,.F.);
#621 = PLANE('',#622);
#622 = AXIS2_PLACEMENT_3D('',#623,#624,#625);
#623 = CARTESIAN_POINT('',(130.7211,-125.9586,0.));
#624 = DIRECTION('',(-1.,0.,0.));
#625 = DIRECTION('',(0.,1.,0.));
#626 = ADVANCED_FACE('',(#627),#638,.T.);
#627 = FACE_BOUND('',#628,.T.);
#628 = EDGE_LOOP('',(#629,#630,#631,#637));
#629 = ORIENTED_EDGE('',*,*,#598,.T.);
#630 = ORIENTED_EDGE('',*,*,#422,.T.);
#631 = ORIENTED_EDGE('',*,*,#632,.F.);
#632 = EDGE_CURVE('',#197,#415,#633,.T.);
#633 = LINE('',#634,#635);
#634 = CARTESIAN_POINT('',(161.2011,-125.9586,0.));
#635 = VECTOR('',#636,1.);
#636 = DIRECTION('',(0.,0.,1.));
#637 = ORIENTED_EDGE('',*,*,#204,.F.);
#638 = CYLINDRICAL_SURFACE('',#639,2.540000765514);
#639 = AXIS2_PLACEMENT_3D('',#640,#641,#642);
#640 = CARTESIAN_POINT('',(163.74110076551,-125.9585992344,0.));
#641 = DIRECTION('',(0.,0.,-1.));
#642 = DIRECTION('',(-3.01383458606E-07,-1.,-0.));
#643 = ADVANCED_FACE('',(#644),#655,.T.);
#644 = FACE_BOUND('',#645,.T.);
#645 = EDGE_LOOP('',(#646,#652,#653,#654));
#646 = ORIENTED_EDGE('',*,*,#647,.T.);
#647 = EDGE_CURVE('',#163,#381,#648,.T.);
#648 = LINE('',#649,#650);
#649 = CARTESIAN_POINT('',(133.2611,-128.4986,0.));
#650 = VECTOR('',#651,1.);
#651 = DIRECTION('',(0.,0.,1.));
#652 = ORIENTED_EDGE('',*,*,#380,.T.);
#653 = ORIENTED_EDGE('',*,*,#613,.F.);
#654 = ORIENTED_EDGE('',*,*,#162,.F.);
#655 = CYLINDRICAL_SURFACE('',#656,2.540000765514);
#656 = AXIS2_PLACEMENT_3D('',#657,#658,#659);
#657 = CARTESIAN_POINT('',(133.26110076551,-125.9585992344,0.));
#658 = DIRECTION('',(0.,0.,-1.));
#659 = DIRECTION('',(-3.013834362268E-07,-1.,-0.));
#660 = ADVANCED_FACE('',(#661),#672,.T.);
#661 = FACE_BOUND('',#662,.T.);
#662 = EDGE_LOOP('',(#663,#664,#665,#671));
#663 = ORIENTED_EDGE('',*,*,#632,.T.);
#664 = ORIENTED_EDGE('',*,*,#414,.T.);
#665 = ORIENTED_EDGE('',*,*,#666,.F.);
#666 = EDGE_CURVE('',#189,#407,#667,.T.);
#667 = LINE('',#668,#669);
#668 = CARTESIAN_POINT('',(161.2011,-123.4186,0.));
#669 = VECTOR('',#670,1.);
#670 = DIRECTION('',(0.,0.,1.));
#671 = ORIENTED_EDGE('',*,*,#196,.F.);
#672 = PLANE('',#673);
#673 = AXIS2_PLACEMENT_3D('',#674,#675,#676);
#674 = CARTESIAN_POINT('',(161.2011,-125.9586,0.));
#675 = DIRECTION('',(-1.,0.,0.));
#676 = DIRECTION('',(0.,1.,0.));
#677 = ADVANCED_FACE('',(#678),#689,.T.);
#678 = FACE_BOUND('',#679,.T.);
#679 = EDGE_LOOP('',(#680,#686,#687,#688));
#680 = ORIENTED_EDGE('',*,*,#681,.T.);
#681 = EDGE_CURVE('',#172,#390,#682,.T.);
#682 = LINE('',#683,#684);
#683 = CARTESIAN_POINT('',(135.8011,-125.9586,0.));
#684 = VECTOR('',#685,1.);
#685 = DIRECTION('',(0.,0.,1.));
#686 = ORIENTED_EDGE('',*,*,#389,.T.);
#687 = ORIENTED_EDGE('',*,*,#647,.F.);
#688 = ORIENTED_EDGE('',*,*,#171,.F.);
#689 = CYLINDRICAL_SURFACE('',#690,2.540000765514);
#690 = AXIS2_PLACEMENT_3D('',#691,#692,#693);
#691 = CARTESIAN_POINT('',(133.26109923448,-125.9585992344,0.));
#692 = DIRECTION('',(0.,0.,-1.));
#693 = DIRECTION('',(1.,-3.013834362268E-07,0.));
#694 = ADVANCED_FACE('',(#695),#706,.T.);
#695 = FACE_BOUND('',#696,.T.);
#696 = EDGE_LOOP('',(#697,#698,#699,#705));
#697 = ORIENTED_EDGE('',*,*,#666,.T.);
#698 = ORIENTED_EDGE('',*,*,#406,.T.);
#699 = ORIENTED_EDGE('',*,*,#700,.F.);
#700 = EDGE_CURVE('',#181,#399,#701,.T.);
#701 = LINE('',#702,#703);
#702 = CARTESIAN_POINT('',(135.8011,-123.4186,0.));
#703 = VECTOR('',#704,1.);
#704 = DIRECTION('',(0.,0.,1.));
#705 = ORIENTED_EDGE('',*,*,#188,.F.);
#706 = PLANE('',#707);
#707 = AXIS2_PLACEMENT_3D('',#708,#709,#710);
#708 = CARTESIAN_POINT('',(161.2011,-123.4186,0.));
#709 = DIRECTION('',(0.,-1.,0.));
#710 = DIRECTION('',(-1.,0.,0.));
#711 = ADVANCED_FACE('',(#712),#718,.T.);
#712 = FACE_BOUND('',#713,.T.);
#713 = EDGE_LOOP('',(#714,#715,#716,#717));
#714 = ORIENTED_EDGE('',*,*,#700,.T.);
#715 = ORIENTED_EDGE('',*,*,#398,.T.);
#716 = ORIENTED_EDGE('',*,*,#681,.F.);
#717 = ORIENTED_EDGE('',*,*,#180,.F.);
#718 = PLANE('',#719);
#719 = AXIS2_PLACEMENT_3D('',#720,#721,#722);
#720 = CARTESIAN_POINT('',(135.8011,-123.4186,0.));
#721 = DIRECTION('',(1.,0.,-0.));
#722 = DIRECTION('',(0.,-1.,0.));
#723 = ADVANCED_FACE('',(#724),#735,.F.);
#724 = FACE_BOUND('',#725,.T.);
#725 = EDGE_LOOP('',(#726,#727,#733,#734));
#726 = ORIENTED_EDGE('',*,*,#223,.T.);
#727 = ORIENTED_EDGE('',*,*,#728,.T.);
#728 = EDGE_CURVE('',#224,#442,#729,.T.);
#729 = LINE('',#730,#731);
#730 = CARTESIAN_POINT('',(133.2611,-127.2086,-4.6E-02));
#731 = VECTOR('',#732,1.);
#732 = DIRECTION('',(0.,0.,1.));
#733 = ORIENTED_EDGE('',*,*,#441,.F.);
#734 = ORIENTED_EDGE('',*,*,#728,.F.);
#735 = CYLINDRICAL_SURFACE('',#736,1.25);
#736 = AXIS2_PLACEMENT_3D('',#737,#738,#739);
#737 = CARTESIAN_POINT('',(133.2611,-125.9586,-4.6E-02));
#738 = DIRECTION('',(-0.,-0.,-1.));
#739 = DIRECTION('',(-0.,-1.,0.));
#740 = ADVANCED_FACE('',(#741),#752,.F.);
#741 = FACE_BOUND('',#742,.T.);
#742 = EDGE_LOOP('',(#743,#744,#750,#751));
#743 = ORIENTED_EDGE('',*,*,#234,.T.);
#744 = ORIENTED_EDGE('',*,*,#745,.T.);
#745 = EDGE_CURVE('',#235,#453,#746,.T.);
#746 = LINE('',#747,#748);
#747 = CARTESIAN_POINT('',(163.7411,-127.2086,-4.6E-02));
#748 = VECTOR('',#749,1.);
#749 = DIRECTION('',(0.,0.,1.));
#750 = ORIENTED_EDGE('',*,*,#452,.F.);
#751 = ORIENTED_EDGE('',*,*,#745,.F.);
#752 = CYLINDRICAL_SURFACE('',#753,1.25);
#753 = AXIS2_PLACEMENT_3D('',#754,#755,#756);
#754 = CARTESIAN_POINT('',(163.7411,-125.9586,-4.6E-02));
#755 = DIRECTION('',(-0.,-0.,-1.));
#756 = DIRECTION('',(-0.,-1.,0.));
#757 = ADVANCED_FACE('',(#758),#769,.F.);
#758 = FACE_BOUND('',#759,.T.);
#759 = EDGE_LOOP('',(#760,#761,#767,#768));
#760 = ORIENTED_EDGE('',*,*,#245,.T.);
#761 = ORIENTED_EDGE('',*,*,#762,.T.);
#762 = EDGE_CURVE('',#246,#464,#763,.T.);
#763 = LINE('',#764,#765);
#764 = CARTESIAN_POINT('',(133.2611,-85.2986,-4.6E-02));
#765 = VECTOR('',#766,1.);
#766 = DIRECTION('',(0.,0.,1.));
#767 = ORIENTED_EDGE('',*,*,#463,.F.);
#768 = ORIENTED_EDGE('',*,*,#762,.F.);
#769 = CYLINDRICAL_SURFACE('',#770,1.25);
#770 = AXIS2_PLACEMENT_3D('',#771,#772,#773);
#771 = CARTESIAN_POINT('',(133.2611,-84.0486,-4.6E-02));
#772 = DIRECTION('',(-0.,-0.,-1.));
#773 = DIRECTION('',(-0.,-1.,0.));
#774 = ADVANCED_FACE('',(#775),#786,.F.);
#775 = FACE_BOUND('',#776,.T.);
#776 = EDGE_LOOP('',(#777,#778,#784,#785));
#777 = ORIENTED_EDGE('',*,*,#256,.T.);
#778 = ORIENTED_EDGE('',*,*,#779,.T.);
#779 = EDGE_CURVE('',#257,#475,#780,.T.);
#780 = LINE('',#781,#782);
#781 = CARTESIAN_POINT('',(139.6111,-84.5486,-4.6E-02));
#782 = VECTOR('',#783,1.);
#783 = DIRECTION('',(0.,0.,1.));
#784 = ORIENTED_EDGE('',*,*,#474,.F.);
#785 = ORIENTED_EDGE('',*,*,#779,.F.);
#786 = CYLINDRICAL_SURFACE('',#787,0.5);
#787 = AXIS2_PLACEMENT_3D('',#788,#789,#790);
#788 = CARTESIAN_POINT('',(139.6111,-84.0486,-4.6E-02));
#789 = DIRECTION('',(-0.,-0.,-1.));
#790 = DIRECTION('',(-0.,-1.,0.));
#791 = ADVANCED_FACE('',(#792),#803,.F.);
#792 = FACE_BOUND('',#793,.T.);
#793 = EDGE_LOOP('',(#794,#795,#801,#802));
#794 = ORIENTED_EDGE('',*,*,#267,.T.);
#795 = ORIENTED_EDGE('',*,*,#796,.T.);
#796 = EDGE_CURVE('',#268,#486,#797,.T.);
#797 = LINE('',#798,#799);
#798 = CARTESIAN_POINT('',(142.1511,-84.5486,-4.6E-02));
#799 = VECTOR('',#800,1.);
#800 = DIRECTION('',(0.,0.,1.));
#801 = ORIENTED_EDGE('',*,*,#485,.F.);
#802 = ORIENTED_EDGE('',*,*,#796,.F.);
#803 = CYLINDRICAL_SURFACE('',#804,0.5);
#804 = AXIS2_PLACEMENT_3D('',#805,#806,#807);
#805 = CARTESIAN_POINT('',(142.1511,-84.0486,-4.6E-02));
#806 = DIRECTION('',(-0.,-0.,-1.));
#807 = DIRECTION('',(-0.,-1.,0.));
#808 = ADVANCED_FACE('',(#809),#820,.F.);
#809 = FACE_BOUND('',#810,.T.);
#810 = EDGE_LOOP('',(#811,#812,#818,#819));
#811 = ORIENTED_EDGE('',*,*,#278,.T.);
#812 = ORIENTED_EDGE('',*,*,#813,.T.);
#813 = EDGE_CURVE('',#279,#497,#814,.T.);
#814 = LINE('',#815,#816);
#815 = CARTESIAN_POINT('',(144.6911,-84.5486,-4.6E-02));
#816 = VECTOR('',#817,1.);
#817 = DIRECTION('',(0.,0.,1.));
#818 = ORIENTED_EDGE('',*,*,#496,.F.);
#819 = ORIENTED_EDGE('',*,*,#813,.F.);
#820 = CYLINDRICAL_SURFACE('',#821,0.5);
#821 = AXIS2_PLACEMENT_3D('',#822,#823,#824);
#822 = CARTESIAN_POINT('',(144.6911,-84.0486,-4.6E-02));
#823 = DIRECTION('',(-0.,-0.,-1.));
#824 = DIRECTION('',(-0.,-1.,0.));
#825 = ADVANCED_FACE('',(#826),#837,.F.);
#826 = FACE_BOUND('',#827,.T.);
#827 = EDGE_LOOP('',(#828,#829,#835,#836));
#828 = ORIENTED_EDGE('',*,*,#289,.T.);
#829 = ORIENTED_EDGE('',*,*,#830,.T.);
#830 = EDGE_CURVE('',#290,#508,#831,.T.);
#831 = LINE('',#832,#833);
#832 = CARTESIAN_POINT('',(147.2311,-84.5486,-4.6E-02));
#833 = VECTOR('',#834,1.);
#834 = DIRECTION('',(0.,0.,1.));
#835 = ORIENTED_EDGE('',*,*,#507,.F.);
#836 = ORIENTED_EDGE('',*,*,#830,.F.);
#837 = CYLINDRICAL_SURFACE('',#838,0.5);
#838 = AXIS2_PLACEMENT_3D('',#839,#840,#841);
#839 = CARTESIAN_POINT('',(147.2311,-84.0486,-4.6E-02));
#840 = DIRECTION('',(-0.,-0.,-1.));
#841 = DIRECTION('',(-0.,-1.,0.));
#842 = ADVANCED_FACE('',(#843),#854,.F.);
#843 = FACE_BOUND('',#844,.T.);
#844 = EDGE_LOOP('',(#845,#846,#852,#853));
#845 = ORIENTED_EDGE('',*,*,#300,.T.);
#846 = ORIENTED_EDGE('',*,*,#847,.T.);
#847 = EDGE_CURVE('',#301,#519,#848,.T.);
#848 = LINE('',#849,#850);
#849 = CARTESIAN_POINT('',(149.7711,-84.5486,-4.6E-02));
#850 = VECTOR('',#851,1.);
#851 = DIRECTION('',(0.,0.,1.));
#852 = ORIENTED_EDGE('',*,*,#518,.F.);
#853 = ORIENTED_EDGE('',*,*,#847,.F.);
#854 = CYLINDRICAL_SURFACE('',#855,0.5);
#855 = AXIS2_PLACEMENT_3D('',#856,#857,#858);
#856 = CARTESIAN_POINT('',(149.7711,-84.0486,-4.6E-02));
#857 = DIRECTION('',(-0.,-0.,-1.));
#858 = DIRECTION('',(-0.,-1.,0.));
#859 = ADVANCED_FACE('',(#860),#871,.F.);
#860 = FACE_BOUND('',#861,.T.);
#861 = EDGE_LOOP('',(#862,#863,#869,#870));
#862 = ORIENTED_EDGE('',*,*,#311,.T.);
#863 = ORIENTED_EDGE('',*,*,#864,.T.);
#864 = EDGE_CURVE('',#312,#530,#865,.T.);
#865 = LINE('',#866,#867);
#866 = CARTESIAN_POINT('',(152.3111,-84.5486,-4.6E-02));
#867 = VECTOR('',#868,1.);
#868 = DIRECTION('',(0.,0.,1.));
#869 = ORIENTED_EDGE('',*,*,#529,.F.);
#870 = ORIENTED_EDGE('',*,*,#864,.F.);
#871 = CYLINDRICAL_SURFACE('',#872,0.5);
#872 = AXIS2_PLACEMENT_3D('',#873,#874,#875);
#873 = CARTESIAN_POINT('',(152.3111,-84.0486,-4.6E-02));
#874 = DIRECTION('',(-0.,-0.,-1.));
#875 = DIRECTION('',(-0.,-1.,0.));
#876 = ADVANCED_FACE('',(#877),#888,.F.);
#877 = FACE_BOUND('',#878,.T.);
#878 = EDGE_LOOP('',(#879,#880,#886,#887));
#879 = ORIENTED_EDGE('',*,*,#322,.T.);
#880 = ORIENTED_EDGE('',*,*,#881,.T.);
#881 = EDGE_CURVE('',#323,#541,#882,.T.);
#882 = LINE('',#883,#884);
#883 = CARTESIAN_POINT('',(154.8511,-84.5486,-4.6E-02));
#884 = VECTOR('',#885,1.);
#885 = DIRECTION('',(0.,0.,1.));
#886 = ORIENTED_EDGE('',*,*,#540,.F.);
#887 = ORIENTED_EDGE('',*,*,#881,.F.);
#888 = CYLINDRICAL_SURFACE('',#889,0.5);
#889 = AXIS2_PLACEMENT_3D('',#890,#891,#892);
#890 = CARTESIAN_POINT('',(154.8511,-84.0486,-4.6E-02));
#891 = DIRECTION('',(-0.,-0.,-1.));
#892 = DIRECTION('',(-0.,-1.,0.));
#893 = ADVANCED_FACE('',(#894),#905,.F.);
#894 = FACE_BOUND('',#895,.T.);
#895 = EDGE_LOOP('',(#896,#897,#903,#904));
#896 = ORIENTED_EDGE('',*,*,#333,.T.);
#897 = ORIENTED_EDGE('',*,*,#898,.T.);
#898 = EDGE_CURVE('',#334,#552,#899,.T.);
#899 = LINE('',#900,#901);
#900 = CARTESIAN_POINT('',(157.3911,-84.5486,-4.6E-02));
#901 = VECTOR('',#902,1.);
#902 = DIRECTION('',(0.,0.,1.));
#903 = ORIENTED_EDGE('',*,*,#551,.F.);
#904 = ORIENTED_EDGE('',*,*,#898,.F.);
#905 = CYLINDRICAL_SURFACE('',#906,0.5);
#906 = AXIS2_PLACEMENT_3D('',#907,#908,#909);
#907 = CARTESIAN_POINT('',(157.3911,-84.0486,-4.6E-02));
#908 = DIRECTION('',(-0.,-0.,-1.));
#909 = DIRECTION('',(-0.,-1.,0.));
#910 = ADVANCED_FACE('',(#911),#922,.F.);
#911 = FACE_BOUND('',#912,.T.);
#912 = EDGE_LOOP('',(#913,#914,#920,#921));
#913 = ORIENTED_EDGE('',*,*,#344,.T.);
#914 = ORIENTED_EDGE('',*,*,#915,.T.);
#915 = EDGE_CURVE('',#345,#563,#916,.T.);
#916 = LINE('',#917,#918);
#917 = CARTESIAN_POINT('',(163.7411,-85.2986,-4.6E-02));
#918 = VECTOR('',#919,1.);
#919 = DIRECTION('',(0.,0.,1.));
#920 = ORIENTED_EDGE('',*,*,#562,.F.);
#921 = ORIENTED_EDGE('',*,*,#915,.F.);
#922 = CYLINDRICAL_SURFACE('',#923,1.25);
#923 = AXIS2_PLACEMENT_3D('',#924,#925,#926);
#924 = CARTESIAN_POINT('',(163.7411,-84.0486,-4.6E-02));
#925 = DIRECTION('',(-0.,-0.,-1.));
#926 = DIRECTION('',(-0.,-1.,0.));
#927 = ( GEOMETRIC_REPRESENTATION_CONTEXT(3) 
GLOBAL_UNCERTAINTY_ASSIGNED_CONTEXT((#931)) GLOBAL_UNIT_ASSIGNED_CONTEXT
((#928,#929,#930)) REPRESENTATION_CONTEXT('Context #1',
  '3D Context with UNIT and UNCERTAINTY') );
#928 = ( LENGTH_UNIT() NAMED_UNIT(*) SI_UNIT(.MILLI.,.METRE.) );
#929 = ( NAMED_UNIT(*) PLANE_ANGLE_UNIT() SI_UNIT($,.RADIAN.) );
#930 = ( NAMED_UNIT(*) SI_UNIT($,.STERADIAN.) SOLID_ANGLE_UNIT() );
#931 = UNCERTAINTY_MEASURE_WITH_UNIT(LENGTH_MEASURE(1.E-07),#928,
  'distance_accuracy_value','confusion accuracy');
#932 = CONTEXT_DEPENDENT_SHAPE_REPRESENTATION(#933,#935);
#933 = ( REPRESENTATION_RELATIONSHIP('','',#32,#10) 
REPRESENTATION_RELATIONSHIP_WITH_TRANSFORMATION(#934) 
SHAPE_REPRESENTATION_RELATIONSHIP() );
#934 = ITEM_DEFINED_TRANSFORMATION('','',#11,#15);
#935 = PRODUCT_DEFINITION_SHAPE('Placement','Placement of an item',#936
  );
#936 = NEXT_ASSEMBLY_USAGE_OCCURRENCE('1','=>[0:1:1:2]','',#5,#27,$);
#937 = PRODUCT_RELATED_PRODUCT_CATEGORY('part',$,(#29));
#938 = MECHANICAL_DESIGN_GEOMETRIC_PRESENTATION_REPRESENTATION('',(#939)
  ,#927);
#939 = STYLED_ITEM('color',(#940),#33);
#940 = PRESENTATION_STYLE_ASSIGNMENT((#941));
#941 = SURFACE_STYLE_USAGE(.BOTH.,#942);
#942 = SURFACE_SIDE_STYLE('',(#943));
#943 = SURFACE_STYLE_FILL_AREA(#944);
#944 = FILL_AREA_STYLE('',(#945));
#945 = FILL_AREA_STYLE_COLOUR('',#946);
#946 = COLOUR_RGB('',0.313304153717,0.484529207832,0.410020903123);
ENDSEC;
END-ISO-10303-21;
